<mxfile host="app.diagrams.net" modified="2020-08-13T03:51:31.531Z" agent="5.0 (Macintosh; Intel Mac OS X 10_15_3) AppleWebKit/537.36 (KHTML, like Gecko) Chrome/84.0.4147.89 Safari/537.36" etag="ITpIs3QGTQDv3mLFFhW8" version="13.6.2" type="github">
  <diagram id="yoSirl12dt-ZBHxwy8dR" name="Page-1">
    <mxGraphModel dx="1538" dy="834" grid="1" gridSize="10" guides="1" tooltips="1" connect="1" arrows="1" fold="1" page="1" pageScale="1" pageWidth="827" pageHeight="1169" math="0" shadow="0">
      <root>
        <mxCell id="0" />
        <mxCell id="1" parent="0" />
        <mxCell id="35mXfMyns2ajvdDKBd5Q-51" value="" style="group" vertex="1" connectable="0" parent="1">
          <mxGeometry x="110" y="380" width="170.35000000000002" height="270" as="geometry" />
        </mxCell>
        <mxCell id="35mXfMyns2ajvdDKBd5Q-5" value="" style="rounded=1;whiteSpace=wrap;html=1;" vertex="1" parent="35mXfMyns2ajvdDKBd5Q-51">
          <mxGeometry x="90.35" y="250" width="80" height="20" as="geometry" />
        </mxCell>
        <mxCell id="35mXfMyns2ajvdDKBd5Q-1" value="" style="ellipse;whiteSpace=wrap;html=1;aspect=fixed;" vertex="1" parent="35mXfMyns2ajvdDKBd5Q-51">
          <mxGeometry x="61" y="250" width="20" height="20" as="geometry" />
        </mxCell>
        <mxCell id="35mXfMyns2ajvdDKBd5Q-2" value="" style="ellipse;whiteSpace=wrap;html=1;aspect=fixed;" vertex="1" parent="35mXfMyns2ajvdDKBd5Q-51">
          <mxGeometry x="90" y="250" width="20" height="20" as="geometry" />
        </mxCell>
        <mxCell id="35mXfMyns2ajvdDKBd5Q-3" value="" style="ellipse;whiteSpace=wrap;html=1;aspect=fixed;" vertex="1" parent="35mXfMyns2ajvdDKBd5Q-51">
          <mxGeometry x="110" y="250" width="20" height="20" as="geometry" />
        </mxCell>
        <mxCell id="35mXfMyns2ajvdDKBd5Q-4" value="" style="ellipse;whiteSpace=wrap;html=1;aspect=fixed;" vertex="1" parent="35mXfMyns2ajvdDKBd5Q-51">
          <mxGeometry x="150" y="250" width="20" height="20" as="geometry" />
        </mxCell>
        <mxCell id="35mXfMyns2ajvdDKBd5Q-6" value="" style="endArrow=none;dashed=1;html=1;dashPattern=1 3;strokeWidth=2;exitX=1;exitY=0.5;exitDx=0;exitDy=0;entryX=0;entryY=0.5;entryDx=0;entryDy=0;" edge="1" parent="35mXfMyns2ajvdDKBd5Q-51" source="35mXfMyns2ajvdDKBd5Q-3" target="35mXfMyns2ajvdDKBd5Q-4">
          <mxGeometry width="50" height="50" relative="1" as="geometry">
            <mxPoint x="350" y="250" as="sourcePoint" />
            <mxPoint x="400" y="200" as="targetPoint" />
          </mxGeometry>
        </mxCell>
        <mxCell id="35mXfMyns2ajvdDKBd5Q-8" value="EN" style="rounded=1;whiteSpace=wrap;html=1;" vertex="1" parent="35mXfMyns2ajvdDKBd5Q-51">
          <mxGeometry x="90" y="175" width="80" height="30" as="geometry" />
        </mxCell>
        <mxCell id="35mXfMyns2ajvdDKBd5Q-9" value="" style="shape=image;verticalLabelPosition=bottom;labelBackgroundColor=#ffffff;verticalAlign=top;aspect=fixed;imageAspect=0;image=data:image/png,iVBORw0KGgoAAAANSUhEUgAAAGQAAAAaCAYAAABByvnlAAAKuklEQVRoBZVa7VXjSBB0MHAhLGwOwKUAZHA4EyAIQw5AFjbZ6F59dbfM3WJ+8CRLI3m6q6uqZ8zm6eWwPL4clqfdYcF5/+11HddeD8vjbl/3Hnd4Zs9n+Czu+9kcrx8+luvt+3Lz8L7cbN+X6wf8fSxXPPozr2sc73P8B8dlPJ7B81cPb3wX3jnfjXE3248v3494Hl8dl+eHuXHemDvnqyPnfGL8Z5d3y9nF3XJ2ebuc43hxt5z/9pHX+zPGYkzu87kLPJdnb/Wu8Z7NFwA4+Uz4kxNHEAwGATqY5wJgvwCgvIfnu8Ny/fDWiTUgBAbn2w8ld4Clew0OgQSoAHDrd/E9OAfQ/Q58Pv5+JT6F4jly/rjmuEaRIS4C8038Seb5xb0BuV3OfgWkAcxFJ/v8UucEBoD+7mcDFt4LADdPmBwnhkmPisEEX/fLE/44BkzJ/QCUzw0Ug3rZs6rDDCSXVc1Eih24x+vbJH2wgEC8kWFkRAAc7BBQAhdjUij5fgJkAFI8VAHHCtYLxJ/FT1Y4wWCJ2HK3IOnFGJ93sg0Y2EKgbskasufifjkDY/iu22WTSppJJxsCwqx+swKBNPU/JQ0vh+X55VNMejkomVXhkSgzwIxhUgskAXNDNrwvVwHKkhUAJjMKaAKy/n5W/O6TRcbCwtyPpFVxqqhOjV9JRIIjPfes7E5u2AKw7pezX6j8Bo4SZ4lqCQNQYs0GOvscunLSonNXHNiASZsN9A/r8wQoLMM1SBalKSywlzwg0W/UfCVYLFBiPabYIGkKaJDAjMM1ADY/i92WHRaRz1E8YUO8r+YNFfhZ/ErilB35BADS393y16/2DbImXkKPEZMIIIDiPQGGa5tKdHzCCY0m1/FV1c/xCXDFlEjAAMQeIXmyNJkRVd30CEiP/mL6kbvym+2HQIDUhWE+4l01z5q/mo55XXLmeQKcHYovsmsZrudHPLjm+ClNNvGAQ18Zxp5k80iZCmg64jpAA4PqWYMjU5+yFB8xExBQAonHsIPBJCsYgZBxuJ4E53jF5AEUe4O7sDBgShGfse8w+fGb2SgYSDyH8T0nzYtyVN1VWC6/CGNqvj+IPyDwSK9oyZodGM9HR6auTH7R4xqggGdAmt5IZibM6ppSRJ9oIARWNDiJUGV2oiFFal1Z7alqHOEX/szx8A1ej8QZQAIhZgSgbod1XUxw4pNgHPPn4tE4zHXEsTs9fiQu0iTTboOObGnMcbLnOEkajXxK1u+7ZfP4as9wB8WJxifCDreCrDrLFAw8VRnmVMW9HNxldcKn3gMYAQYA9DdliGMNzASxwIMPpe31uzDv+f2M41WJhgei08JRf5ZfxPnD+CczmHiwAMZNf1h7hzqnNAABEmPBFHxuL8pYr0N6LcF1BDxiVtk0fQeuwFxlHI8gmy1qc7vilUwAJLYo6dO4AZKACjh1jHwV09y10Y/QJECy1t+f4mFnVZ6X+cVf+nPWUt/FXyB4nREPQJeUbirtbkCKfHGsW1+8B58xpo9gCBPviaUt9DVVHO6F0gnEgDnQqkx+1th0RdR4m7tkSWsHmHcSrkWkjZ3Jxz2Bh2fSCkPiAKTYZmAteWJEZDNteaRJx5pnsRzG7qKicZtlf4hfiVR1I/EEKNU+5AfylbE5hhV6RhIWQDiGkuWJYHH4nEUgJkxw0gK3HKjyBJJkYlZmKs6SZeONkd88vC0wdwIR2bJkVeLrei8mwxwBKtYJlIx5W3sC/cEgIA43KvLHniPAIEhk+Gnxq+q1BlGC26iLAQAqYNHYA47WJLyXTg330xZf3nbbGw2m7CAAVsm60rBe6Up0wDv08TjHAlH3ESgkiiwgKJaiSJJZgDHNkpYhghMGmRW5RnAIYjMK4Bx/PyW1gEjlu8DcqDCWxDSkmDsX/xO/ALFXuItSxbdkBbRiSbXE8g5J1HoNInDnOiTVMqnryaaKmh2QLCcf1WXparDU9iLZYgOSbYMHUG5j1QoPUDheJs/1CI1dn+VBOJehky1uefEdSm7mEolV0WiF3tcYD+NFDF1EvP5N/Gpfvxp5GKFjvMGSZpYETDBC6xAxTYCKKVypS540MQQWJmjiue5jgLCvsHuZmovz17EOCRtiyJYx7NCq2rvSJUnwiHRnvRrntfgHF4liVBhWPufvT3Jx1HkvAquA2GVFnhPnn+OnLKHivR0CAJBoVv2Qnkq+/UVbI5YuS1qNGbK2wWSfTc+qsrBlmHTdozz15NNZyRxVoXgnkt3sSPekYwxfVf6+/P1PM6m8IW0vt0mS/AYR4zjW446/vz5zvmCK5iyA5vnP4mfys3nIZE9z7rZXILWXxF8IQm2/C0xuteBd2u0Fld2Xl46K6nOPi5qMtQeY4cpa+Uxky2whIGYDmTDPmUS1q1ocGjB7jNYm6abUlWHcFSXKrTLeQdD17Kx6Jd+M8FpkAoLiYiFVwZ0efxaFZcQrUNojwogwiX4SNplhLW95zh4yq0YTb1PPlvuaIZEBVR6e7/sAeN9yVEBYimjWqvS0xPQH7/K20SvRs9UtVuCd47145vj7lfReT2mO/btIM0jeEqZ/Fz/bU8uQQIk5T+mSNIEN9Ioyf/12wjULNiANJt4T4Db5sWYG1OeqpAqGlZXKG2BY8ua7krBoPDyjWl6CEobIJwgOfcW7wWSRWtywTU2Ax5MhljJvLs7vFyAtrQXQXFNVPOuC+lP8c0NQ3ZISm06LVZ+WF9Lk8xh3VuQ4yn+07R6g6SGagKWI8uVAQOlqHdOltP5y68RSxQrjnpDeIy9wQrfyCUpRtN8dUnxEwLmjGntXuK93SbqwSAx4OsJ/8BMuWC12pvoFkK5RXiOrQ5qb3afFz0Ra75lkGDmlSB0TJa2q/14/PF3eHjFFbJKfGFA3CbV1Aqr25CRJDGhsvE2mFIiQq3gKAnbQ1RWlknlMMpXk1RiPAzArAChNli+eTw/ROcZzQ3R8/4yHngcQqkOMlIVBOJ4WfzxEFd/trWRnbeIxdiZ+dFLtP+66uPWud5Ehq91dTGxuoeCcSc5PnfrMxWCxR1sQ0WEAJ19QS6ttEHVSWXt05a9liWB44afzvGNIlffDtLZRN6ekN3vXxZNkmy1mSGTsJ/EXK2ara7Oexs2k+zeOaomdeIEZD9H2fcCTZB317umeasIz8TFwt8YJXIxJ5X3adFPZOaL6AYDWGbVHRU/Byj6SJRAiZ9Umr9jmMb52/P0yZ7M3c6asjfVIWPGD+KfMkBU2eCS5E60fnnjf/wCh+2BE/ygVPyEYkawkVEcEIPrGO3KdR+4LtSzhWu4LvFDfC8OsRaorEjCp/DZ8SE+YYrDiHfmpNqt+d1fFJIL5wS5LDA0LxJYAxXtkvjrIzFvHMOj7+Jm8Mu10VgbDjCBTnOAGKiY+gfPzGavfQzBxVI06jRV94R/2BCY/3RSu8VxBJ9i8A8fax3ICq9qHV/AaTDpJz1iMYccVFgQs+8uKKQD5rbwrc0jC8TkxrO8ZmLGh+mXsf8RPFow2li0sttGzSl8xxeZd49MAtNdoK0adFsCmqWvCqu7898UMSGxp0NKx1JgAFRnb7XsVbXZoqwRtKhgQM7aUBSSyQtfiNWCCtlJ6G0VAuuV1E8Bkju9PcjnHMT9KWRaLuc6iOy3+qvgkOW1tfOTIvFcS53VHpGr9LnVp/wJW+ELr97Q/mgAAAABJRU5ErkJggg==;rotation=90;" vertex="1" parent="35mXfMyns2ajvdDKBd5Q-51">
          <mxGeometry x="44.50999999999999" y="187.35000000000002" width="52.84" height="13.74" as="geometry" />
        </mxCell>
        <mxCell id="35mXfMyns2ajvdDKBd5Q-11" value="" style="shape=orEllipse;perimeter=ellipsePerimeter;whiteSpace=wrap;html=1;backgroundOutline=1;" vertex="1" parent="35mXfMyns2ajvdDKBd5Q-51">
          <mxGeometry x="60.43000000000001" y="126.56" width="21" height="20" as="geometry" />
        </mxCell>
        <mxCell id="35mXfMyns2ajvdDKBd5Q-22" value="" style="group;strokeWidth=3;" vertex="1" connectable="0" parent="35mXfMyns2ajvdDKBd5Q-51">
          <mxGeometry y="120" width="35.93" height="40" as="geometry" />
        </mxCell>
        <mxCell id="35mXfMyns2ajvdDKBd5Q-15" value="" style="ellipse;whiteSpace=wrap;html=1;aspect=fixed;" vertex="1" parent="35mXfMyns2ajvdDKBd5Q-22">
          <mxGeometry width="33.12392993546687" height="33.12392993546687" as="geometry" />
        </mxCell>
        <mxCell id="35mXfMyns2ajvdDKBd5Q-20" value="" style="endArrow=none;html=1;exitX=0;exitY=0.5;exitDx=0;exitDy=0;entryX=1;entryY=0.5;entryDx=0;entryDy=0;" edge="1" parent="35mXfMyns2ajvdDKBd5Q-22" source="35mXfMyns2ajvdDKBd5Q-15" target="35mXfMyns2ajvdDKBd5Q-15">
          <mxGeometry width="50" height="50" relative="1" as="geometry">
            <mxPoint x="95.09565461538462" y="52.307692307692314" as="sourcePoint" />
            <mxPoint x="108.91488538461537" y="36.92307692307693" as="targetPoint" />
            <Array as="points">
              <mxPoint x="12.180269999999998" y="30.76923076923077" />
              <mxPoint x="25.99950076923077" y="9.230769230769232" />
            </Array>
          </mxGeometry>
        </mxCell>
        <mxCell id="35mXfMyns2ajvdDKBd5Q-27" value="" style="endArrow=classic;html=1;exitX=1;exitY=0.5;exitDx=0;exitDy=0;entryX=0;entryY=0.5;entryDx=0;entryDy=0;" edge="1" parent="35mXfMyns2ajvdDKBd5Q-51" source="35mXfMyns2ajvdDKBd5Q-15" target="35mXfMyns2ajvdDKBd5Q-11">
          <mxGeometry width="50" height="50" relative="1" as="geometry">
            <mxPoint x="360" y="110" as="sourcePoint" />
            <mxPoint x="410" y="60" as="targetPoint" />
          </mxGeometry>
        </mxCell>
        <mxCell id="35mXfMyns2ajvdDKBd5Q-30" value="" style="shape=sumEllipse;perimeter=ellipsePerimeter;whiteSpace=wrap;html=1;backgroundOutline=1;strokeWidth=1;" vertex="1" parent="35mXfMyns2ajvdDKBd5Q-51">
          <mxGeometry x="60.5" y="90" width="20.93" height="20" as="geometry" />
        </mxCell>
        <mxCell id="35mXfMyns2ajvdDKBd5Q-34" value="" style="endArrow=classic;html=1;exitX=0.5;exitY=0;exitDx=0;exitDy=0;entryX=0.5;entryY=1;entryDx=0;entryDy=0;" edge="1" parent="35mXfMyns2ajvdDKBd5Q-51" source="35mXfMyns2ajvdDKBd5Q-11" target="35mXfMyns2ajvdDKBd5Q-30">
          <mxGeometry width="50" height="50" relative="1" as="geometry">
            <mxPoint x="360" y="110" as="sourcePoint" />
            <mxPoint x="410" y="60" as="targetPoint" />
          </mxGeometry>
        </mxCell>
        <mxCell id="35mXfMyns2ajvdDKBd5Q-36" value="" style="endArrow=classic;html=1;exitX=0.5;exitY=0;exitDx=0;exitDy=0;entryX=1;entryY=0.5;entryDx=0;entryDy=0;" edge="1" parent="35mXfMyns2ajvdDKBd5Q-51" source="35mXfMyns2ajvdDKBd5Q-8" target="35mXfMyns2ajvdDKBd5Q-30">
          <mxGeometry width="50" height="50" relative="1" as="geometry">
            <mxPoint x="360" y="110" as="sourcePoint" />
            <mxPoint x="410" y="60" as="targetPoint" />
            <Array as="points">
              <mxPoint x="130" y="100" />
            </Array>
          </mxGeometry>
        </mxCell>
        <mxCell id="35mXfMyns2ajvdDKBd5Q-40" value="" style="endArrow=classic;html=1;exitX=0.5;exitY=0;exitDx=0;exitDy=0;entryX=0.5;entryY=1;entryDx=0;entryDy=0;" edge="1" parent="35mXfMyns2ajvdDKBd5Q-51" source="35mXfMyns2ajvdDKBd5Q-5" target="35mXfMyns2ajvdDKBd5Q-8">
          <mxGeometry width="50" height="50" relative="1" as="geometry">
            <mxPoint x="360" y="110" as="sourcePoint" />
            <mxPoint x="410" y="60" as="targetPoint" />
          </mxGeometry>
        </mxCell>
        <mxCell id="35mXfMyns2ajvdDKBd5Q-12" style="edgeStyle=orthogonalEdgeStyle;rounded=0;orthogonalLoop=1;jettySize=auto;html=1;exitX=0;exitY=0.5;exitDx=0;exitDy=0;entryX=0.5;entryY=1;entryDx=0;entryDy=0;" edge="1" parent="35mXfMyns2ajvdDKBd5Q-51" source="35mXfMyns2ajvdDKBd5Q-9" target="35mXfMyns2ajvdDKBd5Q-11">
          <mxGeometry relative="1" as="geometry" />
        </mxCell>
        <mxCell id="35mXfMyns2ajvdDKBd5Q-41" value="" style="endArrow=classic;html=1;exitX=0.5;exitY=0;exitDx=0;exitDy=0;entryX=1;entryY=0.5;entryDx=0;entryDy=0;" edge="1" parent="35mXfMyns2ajvdDKBd5Q-51" source="35mXfMyns2ajvdDKBd5Q-1" target="35mXfMyns2ajvdDKBd5Q-9">
          <mxGeometry width="50" height="50" relative="1" as="geometry">
            <mxPoint x="360" y="110" as="sourcePoint" />
            <mxPoint x="410" y="60" as="targetPoint" />
          </mxGeometry>
        </mxCell>
        <mxCell id="35mXfMyns2ajvdDKBd5Q-43" value="" style="endArrow=classic;html=1;exitX=0.5;exitY=0;exitDx=0;exitDy=0;entryX=0.5;entryY=1;entryDx=0;entryDy=0;" edge="1" parent="35mXfMyns2ajvdDKBd5Q-51" source="35mXfMyns2ajvdDKBd5Q-30" target="35mXfMyns2ajvdDKBd5Q-42">
          <mxGeometry width="50" height="50" relative="1" as="geometry">
            <mxPoint x="360" y="110" as="sourcePoint" />
            <mxPoint x="410" y="60" as="targetPoint" />
            <Array as="points">
              <mxPoint x="71" y="80" />
            </Array>
          </mxGeometry>
        </mxCell>
        <mxCell id="35mXfMyns2ajvdDKBd5Q-124" value="" style="group" vertex="1" connectable="0" parent="35mXfMyns2ajvdDKBd5Q-51">
          <mxGeometry x="44.73000000000002" y="-20" width="125.26999999999998" height="80" as="geometry" />
        </mxCell>
        <mxCell id="35mXfMyns2ajvdDKBd5Q-120" value="" style="group" vertex="1" connectable="0" parent="35mXfMyns2ajvdDKBd5Q-124">
          <mxGeometry width="125.26999999999998" height="80" as="geometry" />
        </mxCell>
        <mxCell id="35mXfMyns2ajvdDKBd5Q-42" value="" style="shape=sumEllipse;perimeter=ellipsePerimeter;whiteSpace=wrap;html=1;backgroundOutline=1;strokeWidth=1;" vertex="1" parent="35mXfMyns2ajvdDKBd5Q-120">
          <mxGeometry x="15.769999999999982" y="40" width="20.93" height="20" as="geometry" />
        </mxCell>
        <mxCell id="35mXfMyns2ajvdDKBd5Q-44" value="MH-attention" style="rounded=1;whiteSpace=wrap;html=1;strokeWidth=1;" vertex="1" parent="35mXfMyns2ajvdDKBd5Q-120">
          <mxGeometry x="52.619999999999976" y="35" width="72.65" height="30" as="geometry" />
        </mxCell>
        <mxCell id="35mXfMyns2ajvdDKBd5Q-46" value="" style="endArrow=classic;html=1;entryX=1;entryY=0.5;entryDx=0;entryDy=0;" edge="1" parent="35mXfMyns2ajvdDKBd5Q-120" target="35mXfMyns2ajvdDKBd5Q-42">
          <mxGeometry width="50" height="50" relative="1" as="geometry">
            <mxPoint x="55.26999999999998" y="50" as="sourcePoint" />
            <mxPoint x="365.27" y="60" as="targetPoint" />
          </mxGeometry>
        </mxCell>
        <mxCell id="35mXfMyns2ajvdDKBd5Q-47" value="" style="endArrow=classic;html=1;entryX=0.25;entryY=1;entryDx=0;entryDy=0;" edge="1" parent="35mXfMyns2ajvdDKBd5Q-120" target="35mXfMyns2ajvdDKBd5Q-44">
          <mxGeometry width="50" height="50" relative="1" as="geometry">
            <mxPoint x="25.269999999999982" y="80" as="sourcePoint" />
            <mxPoint x="365.27" y="60" as="targetPoint" />
            <Array as="points">
              <mxPoint x="71.26999999999998" y="80" />
            </Array>
          </mxGeometry>
        </mxCell>
        <mxCell id="35mXfMyns2ajvdDKBd5Q-48" value="" style="shape=image;verticalLabelPosition=bottom;labelBackgroundColor=#ffffff;verticalAlign=top;aspect=fixed;imageAspect=0;image=data:image/png,iVBORw0KGgoAAAANSUhEUgAAAIAAAAAiCAYAAACX6tEuAAARN0lEQVR4Ae1b220U2xKdSYhxdkAKBsl2KLY/gDgwEpABOAHgw321XlW1ewZuAgfJZ3fvVx95Papqd/uwbdv2gv/g30tfV5+H0rzUQF2sC2u3l63nbtvnL1+2p6enbMM247XTf88fv73lV1U3+Z01Uhgav7ixQ8/t2Z+fnrYvxgHjB84nAgWDHpbbtOxdbpZ5NTL/X8aap89P29PTZ60Z/f89Pwqs3+Dyey085+9s/BYzXqv/8vvXvBeK8OkLhKgVh+PhsB2Ox+1wPGwHXB+ObnV/rH6PYy7nZf5oj4eN+13Y5/nx3fb88G77+dCtrq+3n4/v+PP8cL39vH/POT8frrcfmPt47TUY0zysw7ha7cnrx+t6xn7s0+1p+3R7tX24udo+3ubntH26OW0f7q62j/i5PY3x0/bh9mr7dHfy/NP28eakeWgxl/voGvcf7/CM3OcZ2vfP9zfbn29vt9/f0L7Zfs/r72+3399fj37N+/Xt7fbn++ux5s32G3N3e+CeP9mDazSvnrN7PpwAP4dLYJ6BvgC+EgCAi0SDCMt89QtkgCaQQAiAJFKoH/c/MF5kGSBzfgDufqx/vjeJ7ud+uO59AxBABBECOPsHaB9uX62g70DmWs4XsCRWESOgmwQg1+0rEggA8+ebgP6zAGkAv73ZfmF8gBUAey2A9V4GnITCfl/fmkTaT0QTgfbPhwuIAFS4QI169wRIf1yix1cyXCSTHWUqFgD/uDeYJsLPod6VHHABq9zEqHsTpvduYtAtimDvVnXfQelQvwCTK8gN4A6f4AalchMGc+EGNx43CT4M8ohMVxv7uLfX3l5JoVQ9VA2ArPioNeqFuic50M/57RK6xx5vt19Rvx2lCIN+7gnCTDfQ81+QACAHCGjHw3HY96pmjGXebEkEE2hPkprnEEKlPrS9y7LbyjXue1i9w8XqEiGCgGZ4ADke30vtcQIC36EFBAE4rV4o1IAaQIyVfQN8E4COYTCxpgAHgSo8aC1IFRJor3YaqDEhgAoGKAQ/Fj/U+9WOwPGswzwDmX4QA9ffe23IUq6QubvnJ404LDE/8X6J5SOue1xg70hRa9y/m0uVIp4zpr/fnhnPo1i3jvcIF9O+ATQJUvmAiUCiYO0MGybR43W7zIMcgAo2aFS/FQ1QCazHcF1kIDFejfsQyS4R0Cv+D/dguBHZpm0DyD8AmeCECOt9Yj/nxurpBCGEyCCbh2usuQX2ZjipfKPDBvZMUniY6i5gCR4cYQdy7gdRSukj7tc+6PPcH1C/lQ0w4wBT+QIdirbCH94zEUQyKJvHHiHRTAi9n+dpf7uN92LCRmWvcXoqn6DH6gm8FF/JHsaYNFrpTByVC0D5IZKcBnPbZZDQKVlrtQIkuEKBGLBMjHaMkARxPkRBmz3tGA4HWmeC2AH2zx8OYLs//j0EnIEcAhjgxf7LCXpfrA+oAtKqHZn8j0r8AqbmMASU0p3kJRdADjByBz6j3EP7PD+KCLLmWPRorWBUAlP1beeK+23tDTgriAot7vc+ySuSbErtE6hk/er7NWy8snoke7DuATrBjSMgaaw4b2J4jOucTygcOBk0SWgByAEAXid1I/Yb5AJ3KByA7vt1v3eM3m+vesTtlHkzqaOdgxhL1t+ukJyg9rObMKTEKZgXyEVQVWDNBJcKvYO6Bbpi+SBFJXa2+9h82pSUc165C/ZpkjC03JycyEm1ic8q82TfDbqtvGK3VV73Gm938D3zhjEX8xkGRLBKHE00OABOAioJbJXvQRz3U/kkhMfO+gX8JAktH8nZBBZ2bgDVdmVAgDnX4BNUuwPie7nH5ZCA9SKJyKSkroEhCQiobb3A9JyR+EX9UXPsnkBXSOi9af1JKv0MAZwKIPF6JHZQZtQcFRN0278B5T4ANpVBSsJKKg34CC3tPv18hoCXFzlAwJ+Ape9yG1LswsYZEZogiO8FiMFbQDJg5+cAO5K41me+MMIG904Sea9DJJIKfY9KAgU66vJW6d4ZqNgxzrlUtysDlIGDHIr3M2nUPO1jUtydGOel2rZiOEHiv5K9Vmv3zzm4Rs7gvGGEDbmKEz3bPHMEE0fPgkPo+T4IbAc4T/javkOCGSpWsjQheKo4kr+snUqPC1TfjONwhOEMIo3UnFNBhQm4AcgxCMLKQjG/5sI57t8pyzewsPwAnXbvCCJJEwVqT6jAGszPWoyJKCn7Ovnj2M3J5ZoUX3ZcQI1kkAc6IgIdoTJ/hIqVPB02bP10AVy30rlHcgg7Cp6fo+MLIUCZ+18JAZWfKf2cLPvyMhUAQE+2H3BFhAApxT7zzEB9yRFYDTAUjLneT3t1vyoHkQTru653ze4sX+AJwAIUJV2pPLmBcoZZSk4n0f5xl3GkDPe4OymZG2ASpFLyBHacBBpwEUbA0s4NZM4TpG6QpvfB/vrpHCPEw/zLBFgy+Pl+4BLA533TIaj8QZSAvqi2yr1k7CNuwwmYAzSoADmkSRsXSehYyDTWy+pHnKYbvFqIAUBL2aOEE0kCbup87NU/cYUiGvbnuYKqCKlXSv0ToBzrad9Wra4BZkq/gKqqIclfz9NcnAgG4HKG6RhFGoSR164CXzoExKoX5Sbzd4lI2x+grvfnYUCEUH+XgU7kzpK/AG1rN3gEHbE+8R7HyJVDXLMMDAnoMnQIhZE6KcRBkA95WrVR/Z4UuXfrJA4EYpjwMbLIghdJ7RAAn2cGPkruk0KHAKrS4Mb+DXQDCpIklht0xPoc9BBIkQJAIhkk8DkTQOtrkq76sUYERJt/CgEDVBBB8X06QMBdVZ8wMfOBed2kOvDkT6ptoMsVCHYrXvPe99kBY7sy/6l8hYmEFO1bexbB0H9NpXfCJ9DKFeaBzji9E7h6gwiF99mAyJF3CTgPCLH6GSNHQBlYCu36X6AbMABrxXZ/1C83oMpZLcRJ0oJUqSJ8XQTT/f75CwEaNIM+CTHCQs2b43GJ0da89B2PrPlp/wvYjtEz8UNCOA9zxjXdgKFBoEb5PES6jzOk2gih1NZpXmybiSCAxDHvtPWc8RvUcUDEedPanfxxb6p/EKtyCCWGbcsALfaOayWAPOGLG0TVJo0IoWqA18MFQBq6AM8BGuw8gyEjLlDkkQNcPAdY47iVfxHw4QpFkgsEsqMErCh0aWHryQdAkHHyh+vK6EvVCSN2E4cIPoMhYBDEBIpCE6M/8TWtS7uR0TMHMHgBttYC/JSEBp9jfA8wjn5nWGDokAMAlAYzNq7DIdX1uzheVt4KLyKNvZjpc66JZSdpV4jr9PP9MsA5gAE+Uy4UfBF8hYI5/+L1WFvg4EMPu0Cye+QHpW7E94xT7QF73w6l84zBZECiSAJJ+SFaxeblQw44gGM9gBpWXnafkrEUDZU7BCzEUT+TwdrHLrKUgTi+tVIHaLTo2PYIBZ3YpfbvWJ6EUC5iksA1vvrsIAdKDg8JMXh+/nUZSLD6BdBM4BTLpxtcuF6OlOMO3cL+A4bcIIc1rWL0K8YjDAxAmfT5lW/1N1GynwjV69QvIkCpFfOndUfVbFEiGtwkjQWmiZJ+zOcP+psQa59LR38PEPXTnpHAMSlznCfoANlxvU76DGYU73lQt8jRqtf9BYLESUIwJoEvfzsKXhO9TuQCZo+X6vmZGMY9Zyg/6xuMVi4I0UldgEsbxQPo9PmzMIcCEooJIj4wafLQQbKGLZLAYdEGrMHKwZCA1HmAAc+r4qwhIQK4QwLeK2T/IkbKRhFFoHeiFsU3KTQ2LV7XSQ5FjPk2kOUk1A6A+TWQ54AkdhGGBwLfY3hm/vX3AAO0AtaA9n2DH7Azljb9AT4tCVDxWZl7hQIQwUDJKQK+bdwhgWMjPORlEvZWySeidDjBPiJZwJ7gzuuq2XehAOqOKyzzaf85VIq7uAzcOQP2UDzu5A8gKBTI2tvqo3hYuuYvYwkf/hooYyj5dO396CQA3Ukmw0A/HzkAk8AGDuDO0m+CneudC/zrA9FUACaRQGpAAAyUuriA1Rwr57d+mFfq1nqC6rnct5LDOEXmgUA4GsYXQQILSVwDqj4mflA4VDwtPvbP+A/VtysomRxOMMd8nQ9QQZy2bAAcNaK+D0C2fwKpcb4GBnCJ6SYEVc3jXc+bCve1nAWAiwT75xcBotDZkhRwhPzU2UDOCEIIt3aPlUw9hn4Bji+BJkgDKIJoBQdcOgbmiCgr2FrLEIJ5JEkcoMMGnAFz4gATOCk69g+rfqVXxCECyMAzApDGYyEKW6wxKfCSqOzf+YEJhP44AIFxTGYfAUsCNysD27itPKeHAjbhwuRxsldz4BJZlwMkPCcvj77vy8Aq4wTaBHJehyTpS5t+tXERuQXnHEEAx2hYPZUvMgRAtnEFA0ql2/Kxfv/BB8BN+chwECfwGuzJPOFRL4OS5evjj9T+ApngOb7rutUNooQs5SR2lPTrnAFrVhfBXngeFUgQBCxcoLN12bZOAPMix+q25RNQx3YCbctPRdElZts8yDIJp2s9nzkAXgev4O2UTRvvyqDj+wwF87rX93mCxglgAFqSPymctX8SN2b93V8vhooYHsM+/DsCkYoug2f47KBeCN3DAaxUqDTWXsAOMpypGMrO2swz0NwrY1Y95vqD0SJFysBSu+vyJGrp39+zH4QQGWjn88MPAmyLpwu4onCFwCqj1vYYiJZ/dRQsNUe1l0EFARbVj8Tx/xFJsX61/z4HsDuYIHIDHw4lOTQ5qGgSpEFP3Z91RQSSAc+8Xmp8hAMqt871Y98CNoBH3Qofsnu6Q0jCr4pAqKwbIYGkARlUDUw1UolVxsmu1WfVu+SjukMKtnEKhwyDm5yi93UpiDVfO6xw3GGg3gbGohtAg8+w8BdC/Av4sY57eq4OdwLaVLcyfTlECJIwIWIA2Lb4uUdfq4rIN4JK/BQ29Cw6AJS/S/IIKPrKFQxaTvd4fjDO9QE+9xiKj0PcaF4IROL4eXlBo9hsRSe5C8hWvEKB4jtA2wOc+J68guFlhAqGl+kq2H9xAr8Mmn8XkBO/ReGp65MEDuCXedXf5Amh8sIoJR9AkYpX1afWV9yepACAPi+ofMD3SBaZN5g4vM9aKT+uMNWsXGDaeMB0ORcyGFBaOkAO8KkkMm85LbzSn5rZJUiGm1Of/hFQlXhRrIC0UpO0WfEBmyQYRAkpQhblGAkVU/XqS64gQi3nALvj3gJzxPMq6dLXIUJE2N+PeXEAJ4EVl2HPifkzthfIBhfrRl8AZctkUgqP7VeoyZ4OIakCFJcF+Ic72TPf+hHMQYrYfJ0gNkngJgkFUjvWYdz92SvVxK4MJOBQaABFm5c5UWoUPEPFnjyV/Tvxq3vv/TUJoUJGzgzwfPzDSYD+OPTigc8u3psEi/LPiLEjU5zjcOgjXsf5WH7it5whoKf2t7IJpq7jHpjPj0CW/aJ+u4vPGZgDECC/+ZvgBqw90Czrxmme5wV4gK33BTnuDalEBI6HELd5GXSe/MkFHPtj47Z9fUQyiMLcQOoGiPV6eJAFpIrKee099Zx+fieBFxQf++6sP4pWG1uvef/YI4T54e/zA3SUDBdIKQegVocIIda2qgKCn1PEhBSTBqEBf39o9+BfADtWA0QoVy+IRomXDzqYJE43aIUjlCwxfpBJLhAC+O8P/cz53b8AAuhSaOyZzgA3oDNgzJaegyO3Zf92kCg7rY6dE1ISAjqBxPPpAPm7gAANsLp82x/6tM0nX1Db/QEbxMA+8z6KV8y2/eOQJnHbcV4HN4jx+tE6EGC8DDKoATdzilRYW+FBhFCSZ0UjlvuH+QCzeAGbDz8V95PhN6gE2YdD3MNrQSbFeyeC4zsCrJHtW70B2WoNYCSGcwCRRLmC1hrArHVoKDJUeIjd5zyhHYP5gkNPXgf/D4xybXODcbMAAAAAAElFTkSuQmCC;" vertex="1" parent="35mXfMyns2ajvdDKBd5Q-120">
          <mxGeometry width="52.62" height="14" as="geometry" />
        </mxCell>
        <mxCell id="35mXfMyns2ajvdDKBd5Q-50" value="" style="endArrow=classic;html=1;exitX=0.5;exitY=0;exitDx=0;exitDy=0;entryX=0.5;entryY=1;entryDx=0;entryDy=0;" edge="1" parent="35mXfMyns2ajvdDKBd5Q-120" source="35mXfMyns2ajvdDKBd5Q-42" target="35mXfMyns2ajvdDKBd5Q-48">
          <mxGeometry width="50" height="50" relative="1" as="geometry">
            <mxPoint x="315.27" y="110" as="sourcePoint" />
            <mxPoint x="365.27" y="60" as="targetPoint" />
          </mxGeometry>
        </mxCell>
        <mxCell id="35mXfMyns2ajvdDKBd5Q-52" value="" style="group" vertex="1" connectable="0" parent="1">
          <mxGeometry x="280" y="380" width="170.35000000000002" height="270" as="geometry" />
        </mxCell>
        <mxCell id="35mXfMyns2ajvdDKBd5Q-53" value="" style="rounded=1;whiteSpace=wrap;html=1;" vertex="1" parent="35mXfMyns2ajvdDKBd5Q-52">
          <mxGeometry x="90.35" y="250" width="80" height="20" as="geometry" />
        </mxCell>
        <mxCell id="35mXfMyns2ajvdDKBd5Q-54" value="" style="ellipse;whiteSpace=wrap;html=1;aspect=fixed;" vertex="1" parent="35mXfMyns2ajvdDKBd5Q-52">
          <mxGeometry x="61" y="250" width="20" height="20" as="geometry" />
        </mxCell>
        <mxCell id="35mXfMyns2ajvdDKBd5Q-55" value="" style="ellipse;whiteSpace=wrap;html=1;aspect=fixed;" vertex="1" parent="35mXfMyns2ajvdDKBd5Q-52">
          <mxGeometry x="90" y="250" width="20" height="20" as="geometry" />
        </mxCell>
        <mxCell id="35mXfMyns2ajvdDKBd5Q-56" value="" style="ellipse;whiteSpace=wrap;html=1;aspect=fixed;" vertex="1" parent="35mXfMyns2ajvdDKBd5Q-52">
          <mxGeometry x="110" y="250" width="20" height="20" as="geometry" />
        </mxCell>
        <mxCell id="35mXfMyns2ajvdDKBd5Q-57" value="" style="ellipse;whiteSpace=wrap;html=1;aspect=fixed;" vertex="1" parent="35mXfMyns2ajvdDKBd5Q-52">
          <mxGeometry x="150" y="250" width="20" height="20" as="geometry" />
        </mxCell>
        <mxCell id="35mXfMyns2ajvdDKBd5Q-58" value="" style="endArrow=none;dashed=1;html=1;dashPattern=1 3;strokeWidth=2;exitX=1;exitY=0.5;exitDx=0;exitDy=0;entryX=0;entryY=0.5;entryDx=0;entryDy=0;" edge="1" parent="35mXfMyns2ajvdDKBd5Q-52" source="35mXfMyns2ajvdDKBd5Q-56" target="35mXfMyns2ajvdDKBd5Q-57">
          <mxGeometry width="50" height="50" relative="1" as="geometry">
            <mxPoint x="350" y="250" as="sourcePoint" />
            <mxPoint x="400" y="200" as="targetPoint" />
          </mxGeometry>
        </mxCell>
        <mxCell id="35mXfMyns2ajvdDKBd5Q-59" value="EN" style="rounded=1;whiteSpace=wrap;html=1;" vertex="1" parent="35mXfMyns2ajvdDKBd5Q-52">
          <mxGeometry x="90" y="175" width="80" height="30" as="geometry" />
        </mxCell>
        <mxCell id="35mXfMyns2ajvdDKBd5Q-60" value="" style="shape=image;verticalLabelPosition=bottom;labelBackgroundColor=#ffffff;verticalAlign=top;aspect=fixed;imageAspect=0;image=data:image/png,iVBORw0KGgoAAAANSUhEUgAAAGQAAAAaCAYAAABByvnlAAAKuklEQVRoBZVa7VXjSBB0MHAhLGwOwKUAZHA4EyAIQw5AFjbZ6F59dbfM3WJ+8CRLI3m6q6uqZ8zm6eWwPL4clqfdYcF5/+11HddeD8vjbl/3Hnd4Zs9n+Czu+9kcrx8+luvt+3Lz8L7cbN+X6wf8fSxXPPozr2sc73P8B8dlPJ7B81cPb3wX3jnfjXE3248v3494Hl8dl+eHuXHemDvnqyPnfGL8Z5d3y9nF3XJ2ebuc43hxt5z/9pHX+zPGYkzu87kLPJdnb/Wu8Z7NFwA4+Uz4kxNHEAwGATqY5wJgvwCgvIfnu8Ny/fDWiTUgBAbn2w8ld4Clew0OgQSoAHDrd/E9OAfQ/Q58Pv5+JT6F4jly/rjmuEaRIS4C8038Seb5xb0BuV3OfgWkAcxFJ/v8UucEBoD+7mcDFt4LADdPmBwnhkmPisEEX/fLE/44BkzJ/QCUzw0Ug3rZs6rDDCSXVc1Eih24x+vbJH2wgEC8kWFkRAAc7BBQAhdjUij5fgJkAFI8VAHHCtYLxJ/FT1Y4wWCJ2HK3IOnFGJ93sg0Y2EKgbskasufifjkDY/iu22WTSppJJxsCwqx+swKBNPU/JQ0vh+X55VNMejkomVXhkSgzwIxhUgskAXNDNrwvVwHKkhUAJjMKaAKy/n5W/O6TRcbCwtyPpFVxqqhOjV9JRIIjPfes7E5u2AKw7pezX6j8Bo4SZ4lqCQNQYs0GOvscunLSonNXHNiASZsN9A/r8wQoLMM1SBalKSywlzwg0W/UfCVYLFBiPabYIGkKaJDAjMM1ADY/i92WHRaRz1E8YUO8r+YNFfhZ/ErilB35BADS393y16/2DbImXkKPEZMIIIDiPQGGa5tKdHzCCY0m1/FV1c/xCXDFlEjAAMQeIXmyNJkRVd30CEiP/mL6kbvym+2HQIDUhWE+4l01z5q/mo55XXLmeQKcHYovsmsZrudHPLjm+ClNNvGAQ18Zxp5k80iZCmg64jpAA4PqWYMjU5+yFB8xExBQAonHsIPBJCsYgZBxuJ4E53jF5AEUe4O7sDBgShGfse8w+fGb2SgYSDyH8T0nzYtyVN1VWC6/CGNqvj+IPyDwSK9oyZodGM9HR6auTH7R4xqggGdAmt5IZibM6ppSRJ9oIARWNDiJUGV2oiFFal1Z7alqHOEX/szx8A1ej8QZQAIhZgSgbod1XUxw4pNgHPPn4tE4zHXEsTs9fiQu0iTTboOObGnMcbLnOEkajXxK1u+7ZfP4as9wB8WJxifCDreCrDrLFAw8VRnmVMW9HNxldcKn3gMYAQYA9DdliGMNzASxwIMPpe31uzDv+f2M41WJhgei08JRf5ZfxPnD+CczmHiwAMZNf1h7hzqnNAABEmPBFHxuL8pYr0N6LcF1BDxiVtk0fQeuwFxlHI8gmy1qc7vilUwAJLYo6dO4AZKACjh1jHwV09y10Y/QJECy1t+f4mFnVZ6X+cVf+nPWUt/FXyB4nREPQJeUbirtbkCKfHGsW1+8B58xpo9gCBPviaUt9DVVHO6F0gnEgDnQqkx+1th0RdR4m7tkSWsHmHcSrkWkjZ3Jxz2Bh2fSCkPiAKTYZmAteWJEZDNteaRJx5pnsRzG7qKicZtlf4hfiVR1I/EEKNU+5AfylbE5hhV6RhIWQDiGkuWJYHH4nEUgJkxw0gK3HKjyBJJkYlZmKs6SZeONkd88vC0wdwIR2bJkVeLrei8mwxwBKtYJlIx5W3sC/cEgIA43KvLHniPAIEhk+Gnxq+q1BlGC26iLAQAqYNHYA47WJLyXTg330xZf3nbbGw2m7CAAVsm60rBe6Up0wDv08TjHAlH3ESgkiiwgKJaiSJJZgDHNkpYhghMGmRW5RnAIYjMK4Bx/PyW1gEjlu8DcqDCWxDSkmDsX/xO/ALFXuItSxbdkBbRiSbXE8g5J1HoNInDnOiTVMqnryaaKmh2QLCcf1WXparDU9iLZYgOSbYMHUG5j1QoPUDheJs/1CI1dn+VBOJehky1uefEdSm7mEolV0WiF3tcYD+NFDF1EvP5N/Gpfvxp5GKFjvMGSZpYETDBC6xAxTYCKKVypS540MQQWJmjiue5jgLCvsHuZmovz17EOCRtiyJYx7NCq2rvSJUnwiHRnvRrntfgHF4liVBhWPufvT3Jx1HkvAquA2GVFnhPnn+OnLKHivR0CAJBoVv2Qnkq+/UVbI5YuS1qNGbK2wWSfTc+qsrBlmHTdozz15NNZyRxVoXgnkt3sSPekYwxfVf6+/P1PM6m8IW0vt0mS/AYR4zjW446/vz5zvmCK5iyA5vnP4mfys3nIZE9z7rZXILWXxF8IQm2/C0xuteBd2u0Fld2Xl46K6nOPi5qMtQeY4cpa+Uxky2whIGYDmTDPmUS1q1ocGjB7jNYm6abUlWHcFSXKrTLeQdD17Kx6Jd+M8FpkAoLiYiFVwZ0efxaFZcQrUNojwogwiX4SNplhLW95zh4yq0YTb1PPlvuaIZEBVR6e7/sAeN9yVEBYimjWqvS0xPQH7/K20SvRs9UtVuCd47145vj7lfReT2mO/btIM0jeEqZ/Fz/bU8uQQIk5T+mSNIEN9Ioyf/12wjULNiANJt4T4Db5sWYG1OeqpAqGlZXKG2BY8ua7krBoPDyjWl6CEobIJwgOfcW7wWSRWtywTU2Ax5MhljJvLs7vFyAtrQXQXFNVPOuC+lP8c0NQ3ZISm06LVZ+WF9Lk8xh3VuQ4yn+07R6g6SGagKWI8uVAQOlqHdOltP5y68RSxQrjnpDeIy9wQrfyCUpRtN8dUnxEwLmjGntXuK93SbqwSAx4OsJ/8BMuWC12pvoFkK5RXiOrQ5qb3afFz0Ra75lkGDmlSB0TJa2q/14/PF3eHjFFbJKfGFA3CbV1Aqr25CRJDGhsvE2mFIiQq3gKAnbQ1RWlknlMMpXk1RiPAzArAChNli+eTw/ROcZzQ3R8/4yHngcQqkOMlIVBOJ4WfzxEFd/trWRnbeIxdiZ+dFLtP+66uPWud5Ehq91dTGxuoeCcSc5PnfrMxWCxR1sQ0WEAJ19QS6ttEHVSWXt05a9liWB44afzvGNIlffDtLZRN6ekN3vXxZNkmy1mSGTsJ/EXK2ara7Oexs2k+zeOaomdeIEZD9H2fcCTZB317umeasIz8TFwt8YJXIxJ5X3adFPZOaL6AYDWGbVHRU/Byj6SJRAiZ9Umr9jmMb52/P0yZ7M3c6asjfVIWPGD+KfMkBU2eCS5E60fnnjf/wCh+2BE/ygVPyEYkawkVEcEIPrGO3KdR+4LtSzhWu4LvFDfC8OsRaorEjCp/DZ8SE+YYrDiHfmpNqt+d1fFJIL5wS5LDA0LxJYAxXtkvjrIzFvHMOj7+Jm8Mu10VgbDjCBTnOAGKiY+gfPzGavfQzBxVI06jRV94R/2BCY/3RSu8VxBJ9i8A8fax3ICq9qHV/AaTDpJz1iMYccVFgQs+8uKKQD5rbwrc0jC8TkxrO8ZmLGh+mXsf8RPFow2li0sttGzSl8xxeZd49MAtNdoK0adFsCmqWvCqu7898UMSGxp0NKx1JgAFRnb7XsVbXZoqwRtKhgQM7aUBSSyQtfiNWCCtlJ6G0VAuuV1E8Bkju9PcjnHMT9KWRaLuc6iOy3+qvgkOW1tfOTIvFcS53VHpGr9LnVp/wJW+ELr97Q/mgAAAABJRU5ErkJggg==;rotation=90;" vertex="1" parent="35mXfMyns2ajvdDKBd5Q-52">
          <mxGeometry x="44.50999999999999" y="187.35000000000002" width="52.84" height="13.74" as="geometry" />
        </mxCell>
        <mxCell id="35mXfMyns2ajvdDKBd5Q-61" value="" style="shape=orEllipse;perimeter=ellipsePerimeter;whiteSpace=wrap;html=1;backgroundOutline=1;" vertex="1" parent="35mXfMyns2ajvdDKBd5Q-52">
          <mxGeometry x="60.43000000000001" y="126.56" width="21" height="20" as="geometry" />
        </mxCell>
        <mxCell id="35mXfMyns2ajvdDKBd5Q-62" value="" style="group;strokeWidth=3;" vertex="1" connectable="0" parent="35mXfMyns2ajvdDKBd5Q-52">
          <mxGeometry y="120" width="35.93" height="40" as="geometry" />
        </mxCell>
        <mxCell id="35mXfMyns2ajvdDKBd5Q-63" value="" style="ellipse;whiteSpace=wrap;html=1;aspect=fixed;" vertex="1" parent="35mXfMyns2ajvdDKBd5Q-62">
          <mxGeometry width="33.12392993546687" height="33.12392993546687" as="geometry" />
        </mxCell>
        <mxCell id="35mXfMyns2ajvdDKBd5Q-64" value="" style="endArrow=none;html=1;exitX=0;exitY=0.5;exitDx=0;exitDy=0;entryX=1;entryY=0.5;entryDx=0;entryDy=0;" edge="1" parent="35mXfMyns2ajvdDKBd5Q-62" source="35mXfMyns2ajvdDKBd5Q-63" target="35mXfMyns2ajvdDKBd5Q-63">
          <mxGeometry width="50" height="50" relative="1" as="geometry">
            <mxPoint x="95.09565461538462" y="52.307692307692314" as="sourcePoint" />
            <mxPoint x="108.91488538461537" y="36.92307692307693" as="targetPoint" />
            <Array as="points">
              <mxPoint x="12.180269999999998" y="30.76923076923077" />
              <mxPoint x="25.99950076923077" y="9.230769230769232" />
            </Array>
          </mxGeometry>
        </mxCell>
        <mxCell id="35mXfMyns2ajvdDKBd5Q-65" value="" style="endArrow=classic;html=1;exitX=1;exitY=0.5;exitDx=0;exitDy=0;entryX=0;entryY=0.5;entryDx=0;entryDy=0;" edge="1" parent="35mXfMyns2ajvdDKBd5Q-52" source="35mXfMyns2ajvdDKBd5Q-63" target="35mXfMyns2ajvdDKBd5Q-61">
          <mxGeometry width="50" height="50" relative="1" as="geometry">
            <mxPoint x="360" y="110" as="sourcePoint" />
            <mxPoint x="410" y="60" as="targetPoint" />
          </mxGeometry>
        </mxCell>
        <mxCell id="35mXfMyns2ajvdDKBd5Q-66" value="" style="shape=sumEllipse;perimeter=ellipsePerimeter;whiteSpace=wrap;html=1;backgroundOutline=1;strokeWidth=1;" vertex="1" parent="35mXfMyns2ajvdDKBd5Q-52">
          <mxGeometry x="60.5" y="90" width="20.93" height="20" as="geometry" />
        </mxCell>
        <mxCell id="35mXfMyns2ajvdDKBd5Q-67" value="" style="endArrow=classic;html=1;exitX=0.5;exitY=0;exitDx=0;exitDy=0;entryX=0.5;entryY=1;entryDx=0;entryDy=0;" edge="1" parent="35mXfMyns2ajvdDKBd5Q-52" source="35mXfMyns2ajvdDKBd5Q-61" target="35mXfMyns2ajvdDKBd5Q-66">
          <mxGeometry width="50" height="50" relative="1" as="geometry">
            <mxPoint x="360" y="110" as="sourcePoint" />
            <mxPoint x="410" y="60" as="targetPoint" />
          </mxGeometry>
        </mxCell>
        <mxCell id="35mXfMyns2ajvdDKBd5Q-68" value="" style="endArrow=classic;html=1;exitX=0.5;exitY=0;exitDx=0;exitDy=0;entryX=1;entryY=0.5;entryDx=0;entryDy=0;" edge="1" parent="35mXfMyns2ajvdDKBd5Q-52" source="35mXfMyns2ajvdDKBd5Q-59" target="35mXfMyns2ajvdDKBd5Q-66">
          <mxGeometry width="50" height="50" relative="1" as="geometry">
            <mxPoint x="360" y="110" as="sourcePoint" />
            <mxPoint x="410" y="60" as="targetPoint" />
            <Array as="points">
              <mxPoint x="130" y="100" />
            </Array>
          </mxGeometry>
        </mxCell>
        <mxCell id="35mXfMyns2ajvdDKBd5Q-69" value="" style="endArrow=classic;html=1;exitX=0.5;exitY=0;exitDx=0;exitDy=0;entryX=0.5;entryY=1;entryDx=0;entryDy=0;" edge="1" parent="35mXfMyns2ajvdDKBd5Q-52" source="35mXfMyns2ajvdDKBd5Q-53" target="35mXfMyns2ajvdDKBd5Q-59">
          <mxGeometry width="50" height="50" relative="1" as="geometry">
            <mxPoint x="360" y="110" as="sourcePoint" />
            <mxPoint x="410" y="60" as="targetPoint" />
          </mxGeometry>
        </mxCell>
        <mxCell id="35mXfMyns2ajvdDKBd5Q-70" style="edgeStyle=orthogonalEdgeStyle;rounded=0;orthogonalLoop=1;jettySize=auto;html=1;exitX=0;exitY=0.5;exitDx=0;exitDy=0;entryX=0.5;entryY=1;entryDx=0;entryDy=0;" edge="1" parent="35mXfMyns2ajvdDKBd5Q-52" source="35mXfMyns2ajvdDKBd5Q-60" target="35mXfMyns2ajvdDKBd5Q-61">
          <mxGeometry relative="1" as="geometry" />
        </mxCell>
        <mxCell id="35mXfMyns2ajvdDKBd5Q-71" value="" style="endArrow=classic;html=1;exitX=0.5;exitY=0;exitDx=0;exitDy=0;entryX=1;entryY=0.5;entryDx=0;entryDy=0;" edge="1" parent="35mXfMyns2ajvdDKBd5Q-52" source="35mXfMyns2ajvdDKBd5Q-54" target="35mXfMyns2ajvdDKBd5Q-60">
          <mxGeometry width="50" height="50" relative="1" as="geometry">
            <mxPoint x="360" y="110" as="sourcePoint" />
            <mxPoint x="410" y="60" as="targetPoint" />
          </mxGeometry>
        </mxCell>
        <mxCell id="35mXfMyns2ajvdDKBd5Q-73" value="" style="endArrow=classic;html=1;exitX=0.5;exitY=0;exitDx=0;exitDy=0;entryX=0.5;entryY=1;entryDx=0;entryDy=0;" edge="1" parent="35mXfMyns2ajvdDKBd5Q-52" source="35mXfMyns2ajvdDKBd5Q-66" target="35mXfMyns2ajvdDKBd5Q-72">
          <mxGeometry width="50" height="50" relative="1" as="geometry">
            <mxPoint x="360" y="110" as="sourcePoint" />
            <mxPoint x="410" y="60" as="targetPoint" />
            <Array as="points">
              <mxPoint x="71" y="80" />
            </Array>
          </mxGeometry>
        </mxCell>
        <mxCell id="35mXfMyns2ajvdDKBd5Q-123" value="" style="group" vertex="1" connectable="0" parent="35mXfMyns2ajvdDKBd5Q-52">
          <mxGeometry x="45.08000000000002" y="-20" width="125.26999999999998" height="80" as="geometry" />
        </mxCell>
        <mxCell id="35mXfMyns2ajvdDKBd5Q-119" value="" style="group" vertex="1" connectable="0" parent="35mXfMyns2ajvdDKBd5Q-123">
          <mxGeometry width="125.26999999999998" height="80" as="geometry" />
        </mxCell>
        <mxCell id="35mXfMyns2ajvdDKBd5Q-72" value="" style="shape=sumEllipse;perimeter=ellipsePerimeter;whiteSpace=wrap;html=1;backgroundOutline=1;strokeWidth=1;" vertex="1" parent="35mXfMyns2ajvdDKBd5Q-119">
          <mxGeometry x="15.769999999999982" y="40" width="20.93" height="20" as="geometry" />
        </mxCell>
        <mxCell id="35mXfMyns2ajvdDKBd5Q-74" value="MH-attention" style="rounded=1;whiteSpace=wrap;html=1;strokeWidth=1;" vertex="1" parent="35mXfMyns2ajvdDKBd5Q-119">
          <mxGeometry x="52.619999999999976" y="35" width="72.65" height="30" as="geometry" />
        </mxCell>
        <mxCell id="35mXfMyns2ajvdDKBd5Q-75" value="" style="endArrow=classic;html=1;entryX=1;entryY=0.5;entryDx=0;entryDy=0;" edge="1" parent="35mXfMyns2ajvdDKBd5Q-119" target="35mXfMyns2ajvdDKBd5Q-72">
          <mxGeometry width="50" height="50" relative="1" as="geometry">
            <mxPoint x="55.26999999999998" y="50" as="sourcePoint" />
            <mxPoint x="365.27" y="60" as="targetPoint" />
          </mxGeometry>
        </mxCell>
        <mxCell id="35mXfMyns2ajvdDKBd5Q-76" value="" style="endArrow=classic;html=1;entryX=0.25;entryY=1;entryDx=0;entryDy=0;" edge="1" parent="35mXfMyns2ajvdDKBd5Q-119" target="35mXfMyns2ajvdDKBd5Q-74">
          <mxGeometry width="50" height="50" relative="1" as="geometry">
            <mxPoint x="25.269999999999982" y="80" as="sourcePoint" />
            <mxPoint x="365.27" y="60" as="targetPoint" />
            <Array as="points">
              <mxPoint x="71.26999999999998" y="80" />
            </Array>
          </mxGeometry>
        </mxCell>
        <mxCell id="35mXfMyns2ajvdDKBd5Q-77" value="" style="shape=image;verticalLabelPosition=bottom;labelBackgroundColor=#ffffff;verticalAlign=top;aspect=fixed;imageAspect=0;image=data:image/png,iVBORw0KGgoAAAANSUhEUgAAAIAAAAAiCAYAAACX6tEuAAARN0lEQVR4Ae1b220U2xKdSYhxdkAKBsl2KLY/gDgwEpABOAHgw321XlW1ewZuAgfJZ3fvVx95Papqd/uwbdv2gv/g30tfV5+H0rzUQF2sC2u3l63nbtvnL1+2p6enbMM247XTf88fv73lV1U3+Z01Uhgav7ixQ8/t2Z+fnrYvxgHjB84nAgWDHpbbtOxdbpZ5NTL/X8aap89P29PTZ60Z/f89Pwqs3+Dyey085+9s/BYzXqv/8vvXvBeK8OkLhKgVh+PhsB2Ox+1wPGwHXB+ObnV/rH6PYy7nZf5oj4eN+13Y5/nx3fb88G77+dCtrq+3n4/v+PP8cL39vH/POT8frrcfmPt47TUY0zysw7ha7cnrx+t6xn7s0+1p+3R7tX24udo+3ubntH26OW0f7q62j/i5PY3x0/bh9mr7dHfy/NP28eakeWgxl/voGvcf7/CM3OcZ2vfP9zfbn29vt9/f0L7Zfs/r72+3399fj37N+/Xt7fbn++ux5s32G3N3e+CeP9mDazSvnrN7PpwAP4dLYJ6BvgC+EgCAi0SDCMt89QtkgCaQQAiAJFKoH/c/MF5kGSBzfgDufqx/vjeJ7ud+uO59AxBABBECOPsHaB9uX62g70DmWs4XsCRWESOgmwQg1+0rEggA8+ebgP6zAGkAv73ZfmF8gBUAey2A9V4GnITCfl/fmkTaT0QTgfbPhwuIAFS4QI169wRIf1yix1cyXCSTHWUqFgD/uDeYJsLPod6VHHABq9zEqHsTpvduYtAtimDvVnXfQelQvwCTK8gN4A6f4AalchMGc+EGNx43CT4M8ohMVxv7uLfX3l5JoVQ9VA2ArPioNeqFuic50M/57RK6xx5vt19Rvx2lCIN+7gnCTDfQ81+QACAHCGjHw3HY96pmjGXebEkEE2hPkprnEEKlPrS9y7LbyjXue1i9w8XqEiGCgGZ4ADke30vtcQIC36EFBAE4rV4o1IAaQIyVfQN8E4COYTCxpgAHgSo8aC1IFRJor3YaqDEhgAoGKAQ/Fj/U+9WOwPGswzwDmX4QA9ffe23IUq6QubvnJ404LDE/8X6J5SOue1xg70hRa9y/m0uVIp4zpr/fnhnPo1i3jvcIF9O+ATQJUvmAiUCiYO0MGybR43W7zIMcgAo2aFS/FQ1QCazHcF1kIDFejfsQyS4R0Cv+D/dguBHZpm0DyD8AmeCECOt9Yj/nxurpBCGEyCCbh2usuQX2ZjipfKPDBvZMUniY6i5gCR4cYQdy7gdRSukj7tc+6PPcH1C/lQ0w4wBT+QIdirbCH94zEUQyKJvHHiHRTAi9n+dpf7uN92LCRmWvcXoqn6DH6gm8FF/JHsaYNFrpTByVC0D5IZKcBnPbZZDQKVlrtQIkuEKBGLBMjHaMkARxPkRBmz3tGA4HWmeC2AH2zx8OYLs//j0EnIEcAhjgxf7LCXpfrA+oAtKqHZn8j0r8AqbmMASU0p3kJRdADjByBz6j3EP7PD+KCLLmWPRorWBUAlP1beeK+23tDTgriAot7vc+ySuSbErtE6hk/er7NWy8snoke7DuATrBjSMgaaw4b2J4jOucTygcOBk0SWgByAEAXid1I/Yb5AJ3KByA7vt1v3eM3m+vesTtlHkzqaOdgxhL1t+ukJyg9rObMKTEKZgXyEVQVWDNBJcKvYO6Bbpi+SBFJXa2+9h82pSUc165C/ZpkjC03JycyEm1ic8q82TfDbqtvGK3VV73Gm938D3zhjEX8xkGRLBKHE00OABOAioJbJXvQRz3U/kkhMfO+gX8JAktH8nZBBZ2bgDVdmVAgDnX4BNUuwPie7nH5ZCA9SKJyKSkroEhCQiobb3A9JyR+EX9UXPsnkBXSOi9af1JKv0MAZwKIPF6JHZQZtQcFRN0278B5T4ANpVBSsJKKg34CC3tPv18hoCXFzlAwJ+Ape9yG1LswsYZEZogiO8FiMFbQDJg5+cAO5K41me+MMIG904Sea9DJJIKfY9KAgU66vJW6d4ZqNgxzrlUtysDlIGDHIr3M2nUPO1jUtydGOel2rZiOEHiv5K9Vmv3zzm4Rs7gvGGEDbmKEz3bPHMEE0fPgkPo+T4IbAc4T/javkOCGSpWsjQheKo4kr+snUqPC1TfjONwhOEMIo3UnFNBhQm4AcgxCMLKQjG/5sI57t8pyzewsPwAnXbvCCJJEwVqT6jAGszPWoyJKCn7Ovnj2M3J5ZoUX3ZcQI1kkAc6IgIdoTJ/hIqVPB02bP10AVy30rlHcgg7Cp6fo+MLIUCZ+18JAZWfKf2cLPvyMhUAQE+2H3BFhAApxT7zzEB9yRFYDTAUjLneT3t1vyoHkQTru653ze4sX+AJwAIUJV2pPLmBcoZZSk4n0f5xl3GkDPe4OymZG2ASpFLyBHacBBpwEUbA0s4NZM4TpG6QpvfB/vrpHCPEw/zLBFgy+Pl+4BLA533TIaj8QZSAvqi2yr1k7CNuwwmYAzSoADmkSRsXSehYyDTWy+pHnKYbvFqIAUBL2aOEE0kCbup87NU/cYUiGvbnuYKqCKlXSv0ToBzrad9Wra4BZkq/gKqqIclfz9NcnAgG4HKG6RhFGoSR164CXzoExKoX5Sbzd4lI2x+grvfnYUCEUH+XgU7kzpK/AG1rN3gEHbE+8R7HyJVDXLMMDAnoMnQIhZE6KcRBkA95WrVR/Z4UuXfrJA4EYpjwMbLIghdJ7RAAn2cGPkruk0KHAKrS4Mb+DXQDCpIklht0xPoc9BBIkQJAIhkk8DkTQOtrkq76sUYERJt/CgEDVBBB8X06QMBdVZ8wMfOBed2kOvDkT6ptoMsVCHYrXvPe99kBY7sy/6l8hYmEFO1bexbB0H9NpXfCJ9DKFeaBzji9E7h6gwiF99mAyJF3CTgPCLH6GSNHQBlYCu36X6AbMABrxXZ/1C83oMpZLcRJ0oJUqSJ8XQTT/f75CwEaNIM+CTHCQs2b43GJ0da89B2PrPlp/wvYjtEz8UNCOA9zxjXdgKFBoEb5PES6jzOk2gih1NZpXmybiSCAxDHvtPWc8RvUcUDEedPanfxxb6p/EKtyCCWGbcsALfaOayWAPOGLG0TVJo0IoWqA18MFQBq6AM8BGuw8gyEjLlDkkQNcPAdY47iVfxHw4QpFkgsEsqMErCh0aWHryQdAkHHyh+vK6EvVCSN2E4cIPoMhYBDEBIpCE6M/8TWtS7uR0TMHMHgBttYC/JSEBp9jfA8wjn5nWGDokAMAlAYzNq7DIdX1uzheVt4KLyKNvZjpc66JZSdpV4jr9PP9MsA5gAE+Uy4UfBF8hYI5/+L1WFvg4EMPu0Cye+QHpW7E94xT7QF73w6l84zBZECiSAJJ+SFaxeblQw44gGM9gBpWXnafkrEUDZU7BCzEUT+TwdrHLrKUgTi+tVIHaLTo2PYIBZ3YpfbvWJ6EUC5iksA1vvrsIAdKDg8JMXh+/nUZSLD6BdBM4BTLpxtcuF6OlOMO3cL+A4bcIIc1rWL0K8YjDAxAmfT5lW/1N1GynwjV69QvIkCpFfOndUfVbFEiGtwkjQWmiZJ+zOcP+psQa59LR38PEPXTnpHAMSlznCfoANlxvU76DGYU73lQt8jRqtf9BYLESUIwJoEvfzsKXhO9TuQCZo+X6vmZGMY9Zyg/6xuMVi4I0UldgEsbxQPo9PmzMIcCEooJIj4wafLQQbKGLZLAYdEGrMHKwZCA1HmAAc+r4qwhIQK4QwLeK2T/IkbKRhFFoHeiFsU3KTQ2LV7XSQ5FjPk2kOUk1A6A+TWQ54AkdhGGBwLfY3hm/vX3AAO0AtaA9n2DH7Azljb9AT4tCVDxWZl7hQIQwUDJKQK+bdwhgWMjPORlEvZWySeidDjBPiJZwJ7gzuuq2XehAOqOKyzzaf85VIq7uAzcOQP2UDzu5A8gKBTI2tvqo3hYuuYvYwkf/hooYyj5dO396CQA3Ukmw0A/HzkAk8AGDuDO0m+CneudC/zrA9FUACaRQGpAAAyUuriA1Rwr57d+mFfq1nqC6rnct5LDOEXmgUA4GsYXQQILSVwDqj4mflA4VDwtPvbP+A/VtysomRxOMMd8nQ9QQZy2bAAcNaK+D0C2fwKpcb4GBnCJ6SYEVc3jXc+bCve1nAWAiwT75xcBotDZkhRwhPzU2UDOCEIIt3aPlUw9hn4Bji+BJkgDKIJoBQdcOgbmiCgr2FrLEIJ5JEkcoMMGnAFz4gATOCk69g+rfqVXxCECyMAzApDGYyEKW6wxKfCSqOzf+YEJhP44AIFxTGYfAUsCNysD27itPKeHAjbhwuRxsldz4BJZlwMkPCcvj77vy8Aq4wTaBHJehyTpS5t+tXERuQXnHEEAx2hYPZUvMgRAtnEFA0ql2/Kxfv/BB8BN+chwECfwGuzJPOFRL4OS5evjj9T+ApngOb7rutUNooQs5SR2lPTrnAFrVhfBXngeFUgQBCxcoLN12bZOAPMix+q25RNQx3YCbctPRdElZts8yDIJp2s9nzkAXgev4O2UTRvvyqDj+wwF87rX93mCxglgAFqSPymctX8SN2b93V8vhooYHsM+/DsCkYoug2f47KBeCN3DAaxUqDTWXsAOMpypGMrO2swz0NwrY1Y95vqD0SJFysBSu+vyJGrp39+zH4QQGWjn88MPAmyLpwu4onCFwCqj1vYYiJZ/dRQsNUe1l0EFARbVj8Tx/xFJsX61/z4HsDuYIHIDHw4lOTQ5qGgSpEFP3Z91RQSSAc+8Xmp8hAMqt871Y98CNoBH3Qofsnu6Q0jCr4pAqKwbIYGkARlUDUw1UolVxsmu1WfVu+SjukMKtnEKhwyDm5yi93UpiDVfO6xw3GGg3gbGohtAg8+w8BdC/Av4sY57eq4OdwLaVLcyfTlECJIwIWIA2Lb4uUdfq4rIN4JK/BQ29Cw6AJS/S/IIKPrKFQxaTvd4fjDO9QE+9xiKj0PcaF4IROL4eXlBo9hsRSe5C8hWvEKB4jtA2wOc+J68guFlhAqGl+kq2H9xAr8Mmn8XkBO/ReGp65MEDuCXedXf5Amh8sIoJR9AkYpX1afWV9yepACAPi+ofMD3SBaZN5g4vM9aKT+uMNWsXGDaeMB0ORcyGFBaOkAO8KkkMm85LbzSn5rZJUiGm1Of/hFQlXhRrIC0UpO0WfEBmyQYRAkpQhblGAkVU/XqS64gQi3nALvj3gJzxPMq6dLXIUJE2N+PeXEAJ4EVl2HPifkzthfIBhfrRl8AZctkUgqP7VeoyZ4OIakCFJcF+Ic72TPf+hHMQYrYfJ0gNkngJgkFUjvWYdz92SvVxK4MJOBQaABFm5c5UWoUPEPFnjyV/Tvxq3vv/TUJoUJGzgzwfPzDSYD+OPTigc8u3psEi/LPiLEjU5zjcOgjXsf5WH7it5whoKf2t7IJpq7jHpjPj0CW/aJ+u4vPGZgDECC/+ZvgBqw90Czrxmme5wV4gK33BTnuDalEBI6HELd5GXSe/MkFHPtj47Z9fUQyiMLcQOoGiPV6eJAFpIrKee099Zx+fieBFxQf++6sP4pWG1uvef/YI4T54e/zA3SUDBdIKQegVocIIda2qgKCn1PEhBSTBqEBf39o9+BfADtWA0QoVy+IRomXDzqYJE43aIUjlCwxfpBJLhAC+O8P/cz53b8AAuhSaOyZzgA3oDNgzJaegyO3Zf92kCg7rY6dE1ISAjqBxPPpAPm7gAANsLp82x/6tM0nX1Db/QEbxMA+8z6KV8y2/eOQJnHbcV4HN4jx+tE6EGC8DDKoATdzilRYW+FBhFCSZ0UjlvuH+QCzeAGbDz8V95PhN6gE2YdD3MNrQSbFeyeC4zsCrJHtW70B2WoNYCSGcwCRRLmC1hrArHVoKDJUeIjd5zyhHYP5gkNPXgf/D4xybXODcbMAAAAAAElFTkSuQmCC;" vertex="1" parent="35mXfMyns2ajvdDKBd5Q-119">
          <mxGeometry width="52.62" height="14" as="geometry" />
        </mxCell>
        <mxCell id="35mXfMyns2ajvdDKBd5Q-78" value="" style="endArrow=classic;html=1;exitX=0.5;exitY=0;exitDx=0;exitDy=0;entryX=0.5;entryY=1;entryDx=0;entryDy=0;" edge="1" parent="35mXfMyns2ajvdDKBd5Q-119" source="35mXfMyns2ajvdDKBd5Q-72" target="35mXfMyns2ajvdDKBd5Q-77">
          <mxGeometry width="50" height="50" relative="1" as="geometry">
            <mxPoint x="315.27" y="110" as="sourcePoint" />
            <mxPoint x="365.27" y="60" as="targetPoint" />
          </mxGeometry>
        </mxCell>
        <mxCell id="35mXfMyns2ajvdDKBd5Q-79" value="" style="group" vertex="1" connectable="0" parent="1">
          <mxGeometry x="490" y="380" width="170.35000000000002" height="270" as="geometry" />
        </mxCell>
        <mxCell id="35mXfMyns2ajvdDKBd5Q-100" value="" style="endArrow=classic;html=1;exitX=0.5;exitY=0;exitDx=0;exitDy=0;entryX=0.5;entryY=1;entryDx=0;entryDy=0;" edge="1" parent="35mXfMyns2ajvdDKBd5Q-79" source="35mXfMyns2ajvdDKBd5Q-93" target="35mXfMyns2ajvdDKBd5Q-99">
          <mxGeometry width="50" height="50" relative="1" as="geometry">
            <mxPoint x="360" y="110" as="sourcePoint" />
            <mxPoint x="410" y="60" as="targetPoint" />
            <Array as="points">
              <mxPoint x="71" y="80" />
            </Array>
          </mxGeometry>
        </mxCell>
        <mxCell id="35mXfMyns2ajvdDKBd5Q-115" value="" style="group" vertex="1" connectable="0" parent="35mXfMyns2ajvdDKBd5Q-79">
          <mxGeometry y="90" width="170.35" height="180" as="geometry" />
        </mxCell>
        <mxCell id="35mXfMyns2ajvdDKBd5Q-80" value="" style="rounded=1;whiteSpace=wrap;html=1;" vertex="1" parent="35mXfMyns2ajvdDKBd5Q-115">
          <mxGeometry x="90.35" y="160" width="80" height="20" as="geometry" />
        </mxCell>
        <mxCell id="35mXfMyns2ajvdDKBd5Q-81" value="" style="ellipse;whiteSpace=wrap;html=1;aspect=fixed;" vertex="1" parent="35mXfMyns2ajvdDKBd5Q-115">
          <mxGeometry x="61" y="160" width="20" height="20" as="geometry" />
        </mxCell>
        <mxCell id="35mXfMyns2ajvdDKBd5Q-82" value="" style="ellipse;whiteSpace=wrap;html=1;aspect=fixed;" vertex="1" parent="35mXfMyns2ajvdDKBd5Q-115">
          <mxGeometry x="90" y="160" width="20" height="20" as="geometry" />
        </mxCell>
        <mxCell id="35mXfMyns2ajvdDKBd5Q-83" value="" style="ellipse;whiteSpace=wrap;html=1;aspect=fixed;" vertex="1" parent="35mXfMyns2ajvdDKBd5Q-115">
          <mxGeometry x="110" y="160" width="20" height="20" as="geometry" />
        </mxCell>
        <mxCell id="35mXfMyns2ajvdDKBd5Q-84" value="" style="ellipse;whiteSpace=wrap;html=1;aspect=fixed;" vertex="1" parent="35mXfMyns2ajvdDKBd5Q-115">
          <mxGeometry x="150" y="160" width="20" height="20" as="geometry" />
        </mxCell>
        <mxCell id="35mXfMyns2ajvdDKBd5Q-85" value="" style="endArrow=none;dashed=1;html=1;dashPattern=1 3;strokeWidth=2;exitX=1;exitY=0.5;exitDx=0;exitDy=0;entryX=0;entryY=0.5;entryDx=0;entryDy=0;" edge="1" parent="35mXfMyns2ajvdDKBd5Q-115" source="35mXfMyns2ajvdDKBd5Q-83" target="35mXfMyns2ajvdDKBd5Q-84">
          <mxGeometry width="50" height="50" relative="1" as="geometry">
            <mxPoint x="350" y="160" as="sourcePoint" />
            <mxPoint x="400" y="110" as="targetPoint" />
          </mxGeometry>
        </mxCell>
        <mxCell id="35mXfMyns2ajvdDKBd5Q-86" value="EN" style="rounded=1;whiteSpace=wrap;html=1;" vertex="1" parent="35mXfMyns2ajvdDKBd5Q-115">
          <mxGeometry x="90" y="85" width="80" height="30" as="geometry" />
        </mxCell>
        <mxCell id="35mXfMyns2ajvdDKBd5Q-87" value="" style="shape=image;verticalLabelPosition=bottom;labelBackgroundColor=#ffffff;verticalAlign=top;aspect=fixed;imageAspect=0;image=data:image/png,iVBORw0KGgoAAAANSUhEUgAAAGQAAAAaCAYAAABByvnlAAAKuklEQVRoBZVa7VXjSBB0MHAhLGwOwKUAZHA4EyAIQw5AFjbZ6F59dbfM3WJ+8CRLI3m6q6uqZ8zm6eWwPL4clqfdYcF5/+11HddeD8vjbl/3Hnd4Zs9n+Czu+9kcrx8+luvt+3Lz8L7cbN+X6wf8fSxXPPozr2sc73P8B8dlPJ7B81cPb3wX3jnfjXE3248v3494Hl8dl+eHuXHemDvnqyPnfGL8Z5d3y9nF3XJ2ebuc43hxt5z/9pHX+zPGYkzu87kLPJdnb/Wu8Z7NFwA4+Uz4kxNHEAwGATqY5wJgvwCgvIfnu8Ny/fDWiTUgBAbn2w8ld4Clew0OgQSoAHDrd/E9OAfQ/Q58Pv5+JT6F4jly/rjmuEaRIS4C8038Seb5xb0BuV3OfgWkAcxFJ/v8UucEBoD+7mcDFt4LADdPmBwnhkmPisEEX/fLE/44BkzJ/QCUzw0Ug3rZs6rDDCSXVc1Eih24x+vbJH2wgEC8kWFkRAAc7BBQAhdjUij5fgJkAFI8VAHHCtYLxJ/FT1Y4wWCJ2HK3IOnFGJ93sg0Y2EKgbskasufifjkDY/iu22WTSppJJxsCwqx+swKBNPU/JQ0vh+X55VNMejkomVXhkSgzwIxhUgskAXNDNrwvVwHKkhUAJjMKaAKy/n5W/O6TRcbCwtyPpFVxqqhOjV9JRIIjPfes7E5u2AKw7pezX6j8Bo4SZ4lqCQNQYs0GOvscunLSonNXHNiASZsN9A/r8wQoLMM1SBalKSywlzwg0W/UfCVYLFBiPabYIGkKaJDAjMM1ADY/i92WHRaRz1E8YUO8r+YNFfhZ/ErilB35BADS393y16/2DbImXkKPEZMIIIDiPQGGa5tKdHzCCY0m1/FV1c/xCXDFlEjAAMQeIXmyNJkRVd30CEiP/mL6kbvym+2HQIDUhWE+4l01z5q/mo55XXLmeQKcHYovsmsZrudHPLjm+ClNNvGAQ18Zxp5k80iZCmg64jpAA4PqWYMjU5+yFB8xExBQAonHsIPBJCsYgZBxuJ4E53jF5AEUe4O7sDBgShGfse8w+fGb2SgYSDyH8T0nzYtyVN1VWC6/CGNqvj+IPyDwSK9oyZodGM9HR6auTH7R4xqggGdAmt5IZibM6ppSRJ9oIARWNDiJUGV2oiFFal1Z7alqHOEX/szx8A1ej8QZQAIhZgSgbod1XUxw4pNgHPPn4tE4zHXEsTs9fiQu0iTTboOObGnMcbLnOEkajXxK1u+7ZfP4as9wB8WJxifCDreCrDrLFAw8VRnmVMW9HNxldcKn3gMYAQYA9DdliGMNzASxwIMPpe31uzDv+f2M41WJhgei08JRf5ZfxPnD+CczmHiwAMZNf1h7hzqnNAABEmPBFHxuL8pYr0N6LcF1BDxiVtk0fQeuwFxlHI8gmy1qc7vilUwAJLYo6dO4AZKACjh1jHwV09y10Y/QJECy1t+f4mFnVZ6X+cVf+nPWUt/FXyB4nREPQJeUbirtbkCKfHGsW1+8B58xpo9gCBPviaUt9DVVHO6F0gnEgDnQqkx+1th0RdR4m7tkSWsHmHcSrkWkjZ3Jxz2Bh2fSCkPiAKTYZmAteWJEZDNteaRJx5pnsRzG7qKicZtlf4hfiVR1I/EEKNU+5AfylbE5hhV6RhIWQDiGkuWJYHH4nEUgJkxw0gK3HKjyBJJkYlZmKs6SZeONkd88vC0wdwIR2bJkVeLrei8mwxwBKtYJlIx5W3sC/cEgIA43KvLHniPAIEhk+Gnxq+q1BlGC26iLAQAqYNHYA47WJLyXTg330xZf3nbbGw2m7CAAVsm60rBe6Up0wDv08TjHAlH3ESgkiiwgKJaiSJJZgDHNkpYhghMGmRW5RnAIYjMK4Bx/PyW1gEjlu8DcqDCWxDSkmDsX/xO/ALFXuItSxbdkBbRiSbXE8g5J1HoNInDnOiTVMqnryaaKmh2QLCcf1WXparDU9iLZYgOSbYMHUG5j1QoPUDheJs/1CI1dn+VBOJehky1uefEdSm7mEolV0WiF3tcYD+NFDF1EvP5N/Gpfvxp5GKFjvMGSZpYETDBC6xAxTYCKKVypS540MQQWJmjiue5jgLCvsHuZmovz17EOCRtiyJYx7NCq2rvSJUnwiHRnvRrntfgHF4liVBhWPufvT3Jx1HkvAquA2GVFnhPnn+OnLKHivR0CAJBoVv2Qnkq+/UVbI5YuS1qNGbK2wWSfTc+qsrBlmHTdozz15NNZyRxVoXgnkt3sSPekYwxfVf6+/P1PM6m8IW0vt0mS/AYR4zjW446/vz5zvmCK5iyA5vnP4mfys3nIZE9z7rZXILWXxF8IQm2/C0xuteBd2u0Fld2Xl46K6nOPi5qMtQeY4cpa+Uxky2whIGYDmTDPmUS1q1ocGjB7jNYm6abUlWHcFSXKrTLeQdD17Kx6Jd+M8FpkAoLiYiFVwZ0efxaFZcQrUNojwogwiX4SNplhLW95zh4yq0YTb1PPlvuaIZEBVR6e7/sAeN9yVEBYimjWqvS0xPQH7/K20SvRs9UtVuCd47145vj7lfReT2mO/btIM0jeEqZ/Fz/bU8uQQIk5T+mSNIEN9Ioyf/12wjULNiANJt4T4Db5sWYG1OeqpAqGlZXKG2BY8ua7krBoPDyjWl6CEobIJwgOfcW7wWSRWtywTU2Ax5MhljJvLs7vFyAtrQXQXFNVPOuC+lP8c0NQ3ZISm06LVZ+WF9Lk8xh3VuQ4yn+07R6g6SGagKWI8uVAQOlqHdOltP5y68RSxQrjnpDeIy9wQrfyCUpRtN8dUnxEwLmjGntXuK93SbqwSAx4OsJ/8BMuWC12pvoFkK5RXiOrQ5qb3afFz0Ra75lkGDmlSB0TJa2q/14/PF3eHjFFbJKfGFA3CbV1Aqr25CRJDGhsvE2mFIiQq3gKAnbQ1RWlknlMMpXk1RiPAzArAChNli+eTw/ROcZzQ3R8/4yHngcQqkOMlIVBOJ4WfzxEFd/trWRnbeIxdiZ+dFLtP+66uPWud5Ehq91dTGxuoeCcSc5PnfrMxWCxR1sQ0WEAJ19QS6ttEHVSWXt05a9liWB44afzvGNIlffDtLZRN6ekN3vXxZNkmy1mSGTsJ/EXK2ara7Oexs2k+zeOaomdeIEZD9H2fcCTZB317umeasIz8TFwt8YJXIxJ5X3adFPZOaL6AYDWGbVHRU/Byj6SJRAiZ9Umr9jmMb52/P0yZ7M3c6asjfVIWPGD+KfMkBU2eCS5E60fnnjf/wCh+2BE/ygVPyEYkawkVEcEIPrGO3KdR+4LtSzhWu4LvFDfC8OsRaorEjCp/DZ8SE+YYrDiHfmpNqt+d1fFJIL5wS5LDA0LxJYAxXtkvjrIzFvHMOj7+Jm8Mu10VgbDjCBTnOAGKiY+gfPzGavfQzBxVI06jRV94R/2BCY/3RSu8VxBJ9i8A8fax3ICq9qHV/AaTDpJz1iMYccVFgQs+8uKKQD5rbwrc0jC8TkxrO8ZmLGh+mXsf8RPFow2li0sttGzSl8xxeZd49MAtNdoK0adFsCmqWvCqu7898UMSGxp0NKx1JgAFRnb7XsVbXZoqwRtKhgQM7aUBSSyQtfiNWCCtlJ6G0VAuuV1E8Bkju9PcjnHMT9KWRaLuc6iOy3+qvgkOW1tfOTIvFcS53VHpGr9LnVp/wJW+ELr97Q/mgAAAABJRU5ErkJggg==;rotation=90;" vertex="1" parent="35mXfMyns2ajvdDKBd5Q-115">
          <mxGeometry x="44.50999999999999" y="97.35000000000002" width="52.84" height="13.74" as="geometry" />
        </mxCell>
        <mxCell id="35mXfMyns2ajvdDKBd5Q-88" value="" style="shape=orEllipse;perimeter=ellipsePerimeter;whiteSpace=wrap;html=1;backgroundOutline=1;" vertex="1" parent="35mXfMyns2ajvdDKBd5Q-115">
          <mxGeometry x="60.43000000000001" y="36.56" width="21" height="20" as="geometry" />
        </mxCell>
        <mxCell id="35mXfMyns2ajvdDKBd5Q-89" value="" style="group;strokeWidth=3;" vertex="1" connectable="0" parent="35mXfMyns2ajvdDKBd5Q-115">
          <mxGeometry y="30" width="35.93" height="40" as="geometry" />
        </mxCell>
        <mxCell id="35mXfMyns2ajvdDKBd5Q-90" value="" style="ellipse;whiteSpace=wrap;html=1;aspect=fixed;" vertex="1" parent="35mXfMyns2ajvdDKBd5Q-89">
          <mxGeometry width="33.12392993546687" height="33.12392993546687" as="geometry" />
        </mxCell>
        <mxCell id="35mXfMyns2ajvdDKBd5Q-91" value="" style="endArrow=none;html=1;exitX=0;exitY=0.5;exitDx=0;exitDy=0;entryX=1;entryY=0.5;entryDx=0;entryDy=0;" edge="1" parent="35mXfMyns2ajvdDKBd5Q-89" source="35mXfMyns2ajvdDKBd5Q-90" target="35mXfMyns2ajvdDKBd5Q-90">
          <mxGeometry width="50" height="50" relative="1" as="geometry">
            <mxPoint x="95.09565461538462" y="52.307692307692314" as="sourcePoint" />
            <mxPoint x="108.91488538461537" y="36.92307692307693" as="targetPoint" />
            <Array as="points">
              <mxPoint x="12.180269999999998" y="30.76923076923077" />
              <mxPoint x="25.99950076923077" y="9.230769230769232" />
            </Array>
          </mxGeometry>
        </mxCell>
        <mxCell id="35mXfMyns2ajvdDKBd5Q-92" value="" style="endArrow=classic;html=1;exitX=1;exitY=0.5;exitDx=0;exitDy=0;entryX=0;entryY=0.5;entryDx=0;entryDy=0;" edge="1" parent="35mXfMyns2ajvdDKBd5Q-115" source="35mXfMyns2ajvdDKBd5Q-90" target="35mXfMyns2ajvdDKBd5Q-88">
          <mxGeometry width="50" height="50" relative="1" as="geometry">
            <mxPoint x="360" y="20" as="sourcePoint" />
            <mxPoint x="410" y="-30" as="targetPoint" />
          </mxGeometry>
        </mxCell>
        <mxCell id="35mXfMyns2ajvdDKBd5Q-93" value="" style="shape=sumEllipse;perimeter=ellipsePerimeter;whiteSpace=wrap;html=1;backgroundOutline=1;strokeWidth=1;" vertex="1" parent="35mXfMyns2ajvdDKBd5Q-115">
          <mxGeometry x="60.5" width="20.93" height="20" as="geometry" />
        </mxCell>
        <mxCell id="35mXfMyns2ajvdDKBd5Q-94" value="" style="endArrow=classic;html=1;exitX=0.5;exitY=0;exitDx=0;exitDy=0;entryX=0.5;entryY=1;entryDx=0;entryDy=0;" edge="1" parent="35mXfMyns2ajvdDKBd5Q-115" source="35mXfMyns2ajvdDKBd5Q-88" target="35mXfMyns2ajvdDKBd5Q-93">
          <mxGeometry width="50" height="50" relative="1" as="geometry">
            <mxPoint x="360" y="20" as="sourcePoint" />
            <mxPoint x="410" y="-30" as="targetPoint" />
          </mxGeometry>
        </mxCell>
        <mxCell id="35mXfMyns2ajvdDKBd5Q-95" value="" style="endArrow=classic;html=1;exitX=0.5;exitY=0;exitDx=0;exitDy=0;entryX=1;entryY=0.5;entryDx=0;entryDy=0;" edge="1" parent="35mXfMyns2ajvdDKBd5Q-115" source="35mXfMyns2ajvdDKBd5Q-86" target="35mXfMyns2ajvdDKBd5Q-93">
          <mxGeometry width="50" height="50" relative="1" as="geometry">
            <mxPoint x="360" y="20" as="sourcePoint" />
            <mxPoint x="410" y="-30" as="targetPoint" />
            <Array as="points">
              <mxPoint x="130" y="10" />
            </Array>
          </mxGeometry>
        </mxCell>
        <mxCell id="35mXfMyns2ajvdDKBd5Q-96" value="" style="endArrow=classic;html=1;exitX=0.5;exitY=0;exitDx=0;exitDy=0;entryX=0.5;entryY=1;entryDx=0;entryDy=0;" edge="1" parent="35mXfMyns2ajvdDKBd5Q-115" source="35mXfMyns2ajvdDKBd5Q-80" target="35mXfMyns2ajvdDKBd5Q-86">
          <mxGeometry width="50" height="50" relative="1" as="geometry">
            <mxPoint x="360" y="20" as="sourcePoint" />
            <mxPoint x="410" y="-30" as="targetPoint" />
          </mxGeometry>
        </mxCell>
        <mxCell id="35mXfMyns2ajvdDKBd5Q-97" style="edgeStyle=orthogonalEdgeStyle;rounded=0;orthogonalLoop=1;jettySize=auto;html=1;exitX=0;exitY=0.5;exitDx=0;exitDy=0;entryX=0.5;entryY=1;entryDx=0;entryDy=0;" edge="1" parent="35mXfMyns2ajvdDKBd5Q-115" source="35mXfMyns2ajvdDKBd5Q-87" target="35mXfMyns2ajvdDKBd5Q-88">
          <mxGeometry relative="1" as="geometry" />
        </mxCell>
        <mxCell id="35mXfMyns2ajvdDKBd5Q-98" value="" style="endArrow=classic;html=1;exitX=0.5;exitY=0;exitDx=0;exitDy=0;entryX=1;entryY=0.5;entryDx=0;entryDy=0;" edge="1" parent="35mXfMyns2ajvdDKBd5Q-115" source="35mXfMyns2ajvdDKBd5Q-81" target="35mXfMyns2ajvdDKBd5Q-87">
          <mxGeometry width="50" height="50" relative="1" as="geometry">
            <mxPoint x="360" y="20" as="sourcePoint" />
            <mxPoint x="410" y="-30" as="targetPoint" />
          </mxGeometry>
        </mxCell>
        <mxCell id="35mXfMyns2ajvdDKBd5Q-125" value="" style="group" vertex="1" connectable="0" parent="35mXfMyns2ajvdDKBd5Q-79">
          <mxGeometry x="44.73000000000002" y="-20" width="125.26999999999998" height="80" as="geometry" />
        </mxCell>
        <mxCell id="35mXfMyns2ajvdDKBd5Q-118" value="" style="group" vertex="1" connectable="0" parent="35mXfMyns2ajvdDKBd5Q-125">
          <mxGeometry width="125.26999999999998" height="80" as="geometry" />
        </mxCell>
        <mxCell id="35mXfMyns2ajvdDKBd5Q-117" value="" style="group" vertex="1" connectable="0" parent="35mXfMyns2ajvdDKBd5Q-118">
          <mxGeometry width="125.26999999999998" height="80" as="geometry" />
        </mxCell>
        <mxCell id="35mXfMyns2ajvdDKBd5Q-99" value="" style="shape=sumEllipse;perimeter=ellipsePerimeter;whiteSpace=wrap;html=1;backgroundOutline=1;strokeWidth=1;" vertex="1" parent="35mXfMyns2ajvdDKBd5Q-117">
          <mxGeometry x="15.769999999999982" y="40" width="20.93" height="20" as="geometry" />
        </mxCell>
        <mxCell id="35mXfMyns2ajvdDKBd5Q-101" value="MH-attention" style="rounded=1;whiteSpace=wrap;html=1;strokeWidth=1;" vertex="1" parent="35mXfMyns2ajvdDKBd5Q-117">
          <mxGeometry x="52.619999999999976" y="35" width="72.65" height="30" as="geometry" />
        </mxCell>
        <mxCell id="35mXfMyns2ajvdDKBd5Q-102" value="" style="endArrow=classic;html=1;entryX=1;entryY=0.5;entryDx=0;entryDy=0;" edge="1" parent="35mXfMyns2ajvdDKBd5Q-117" target="35mXfMyns2ajvdDKBd5Q-99">
          <mxGeometry width="50" height="50" relative="1" as="geometry">
            <mxPoint x="55.26999999999998" y="50" as="sourcePoint" />
            <mxPoint x="365.27" y="60" as="targetPoint" />
          </mxGeometry>
        </mxCell>
        <mxCell id="35mXfMyns2ajvdDKBd5Q-103" value="" style="endArrow=classic;html=1;entryX=0.25;entryY=1;entryDx=0;entryDy=0;" edge="1" parent="35mXfMyns2ajvdDKBd5Q-117" target="35mXfMyns2ajvdDKBd5Q-101">
          <mxGeometry width="50" height="50" relative="1" as="geometry">
            <mxPoint x="25.269999999999982" y="80" as="sourcePoint" />
            <mxPoint x="365.27" y="60" as="targetPoint" />
            <Array as="points">
              <mxPoint x="71.26999999999998" y="80" />
            </Array>
          </mxGeometry>
        </mxCell>
        <mxCell id="35mXfMyns2ajvdDKBd5Q-104" value="" style="shape=image;verticalLabelPosition=bottom;labelBackgroundColor=#ffffff;verticalAlign=top;aspect=fixed;imageAspect=0;image=data:image/png,iVBORw0KGgoAAAANSUhEUgAAAIAAAAAiCAYAAACX6tEuAAARN0lEQVR4Ae1b220U2xKdSYhxdkAKBsl2KLY/gDgwEpABOAHgw321XlW1ewZuAgfJZ3fvVx95Papqd/uwbdv2gv/g30tfV5+H0rzUQF2sC2u3l63nbtvnL1+2p6enbMM247XTf88fv73lV1U3+Z01Uhgav7ixQ8/t2Z+fnrYvxgHjB84nAgWDHpbbtOxdbpZ5NTL/X8aap89P29PTZ60Z/f89Pwqs3+Dyey085+9s/BYzXqv/8vvXvBeK8OkLhKgVh+PhsB2Ox+1wPGwHXB+ObnV/rH6PYy7nZf5oj4eN+13Y5/nx3fb88G77+dCtrq+3n4/v+PP8cL39vH/POT8frrcfmPt47TUY0zysw7ha7cnrx+t6xn7s0+1p+3R7tX24udo+3ubntH26OW0f7q62j/i5PY3x0/bh9mr7dHfy/NP28eakeWgxl/voGvcf7/CM3OcZ2vfP9zfbn29vt9/f0L7Zfs/r72+3399fj37N+/Xt7fbn++ux5s32G3N3e+CeP9mDazSvnrN7PpwAP4dLYJ6BvgC+EgCAi0SDCMt89QtkgCaQQAiAJFKoH/c/MF5kGSBzfgDufqx/vjeJ7ud+uO59AxBABBECOPsHaB9uX62g70DmWs4XsCRWESOgmwQg1+0rEggA8+ebgP6zAGkAv73ZfmF8gBUAey2A9V4GnITCfl/fmkTaT0QTgfbPhwuIAFS4QI169wRIf1yix1cyXCSTHWUqFgD/uDeYJsLPod6VHHABq9zEqHsTpvduYtAtimDvVnXfQelQvwCTK8gN4A6f4AalchMGc+EGNx43CT4M8ohMVxv7uLfX3l5JoVQ9VA2ArPioNeqFuic50M/57RK6xx5vt19Rvx2lCIN+7gnCTDfQ81+QACAHCGjHw3HY96pmjGXebEkEE2hPkprnEEKlPrS9y7LbyjXue1i9w8XqEiGCgGZ4ADke30vtcQIC36EFBAE4rV4o1IAaQIyVfQN8E4COYTCxpgAHgSo8aC1IFRJor3YaqDEhgAoGKAQ/Fj/U+9WOwPGswzwDmX4QA9ffe23IUq6QubvnJ404LDE/8X6J5SOue1xg70hRa9y/m0uVIp4zpr/fnhnPo1i3jvcIF9O+ATQJUvmAiUCiYO0MGybR43W7zIMcgAo2aFS/FQ1QCazHcF1kIDFejfsQyS4R0Cv+D/dguBHZpm0DyD8AmeCECOt9Yj/nxurpBCGEyCCbh2usuQX2ZjipfKPDBvZMUniY6i5gCR4cYQdy7gdRSukj7tc+6PPcH1C/lQ0w4wBT+QIdirbCH94zEUQyKJvHHiHRTAi9n+dpf7uN92LCRmWvcXoqn6DH6gm8FF/JHsaYNFrpTByVC0D5IZKcBnPbZZDQKVlrtQIkuEKBGLBMjHaMkARxPkRBmz3tGA4HWmeC2AH2zx8OYLs//j0EnIEcAhjgxf7LCXpfrA+oAtKqHZn8j0r8AqbmMASU0p3kJRdADjByBz6j3EP7PD+KCLLmWPRorWBUAlP1beeK+23tDTgriAot7vc+ySuSbErtE6hk/er7NWy8snoke7DuATrBjSMgaaw4b2J4jOucTygcOBk0SWgByAEAXid1I/Yb5AJ3KByA7vt1v3eM3m+vesTtlHkzqaOdgxhL1t+ukJyg9rObMKTEKZgXyEVQVWDNBJcKvYO6Bbpi+SBFJXa2+9h82pSUc165C/ZpkjC03JycyEm1ic8q82TfDbqtvGK3VV73Gm938D3zhjEX8xkGRLBKHE00OABOAioJbJXvQRz3U/kkhMfO+gX8JAktH8nZBBZ2bgDVdmVAgDnX4BNUuwPie7nH5ZCA9SKJyKSkroEhCQiobb3A9JyR+EX9UXPsnkBXSOi9af1JKv0MAZwKIPF6JHZQZtQcFRN0278B5T4ANpVBSsJKKg34CC3tPv18hoCXFzlAwJ+Ape9yG1LswsYZEZogiO8FiMFbQDJg5+cAO5K41me+MMIG904Sea9DJJIKfY9KAgU66vJW6d4ZqNgxzrlUtysDlIGDHIr3M2nUPO1jUtydGOel2rZiOEHiv5K9Vmv3zzm4Rs7gvGGEDbmKEz3bPHMEE0fPgkPo+T4IbAc4T/javkOCGSpWsjQheKo4kr+snUqPC1TfjONwhOEMIo3UnFNBhQm4AcgxCMLKQjG/5sI57t8pyzewsPwAnXbvCCJJEwVqT6jAGszPWoyJKCn7Ovnj2M3J5ZoUX3ZcQI1kkAc6IgIdoTJ/hIqVPB02bP10AVy30rlHcgg7Cp6fo+MLIUCZ+18JAZWfKf2cLPvyMhUAQE+2H3BFhAApxT7zzEB9yRFYDTAUjLneT3t1vyoHkQTru653ze4sX+AJwAIUJV2pPLmBcoZZSk4n0f5xl3GkDPe4OymZG2ASpFLyBHacBBpwEUbA0s4NZM4TpG6QpvfB/vrpHCPEw/zLBFgy+Pl+4BLA533TIaj8QZSAvqi2yr1k7CNuwwmYAzSoADmkSRsXSehYyDTWy+pHnKYbvFqIAUBL2aOEE0kCbup87NU/cYUiGvbnuYKqCKlXSv0ToBzrad9Wra4BZkq/gKqqIclfz9NcnAgG4HKG6RhFGoSR164CXzoExKoX5Sbzd4lI2x+grvfnYUCEUH+XgU7kzpK/AG1rN3gEHbE+8R7HyJVDXLMMDAnoMnQIhZE6KcRBkA95WrVR/Z4UuXfrJA4EYpjwMbLIghdJ7RAAn2cGPkruk0KHAKrS4Mb+DXQDCpIklht0xPoc9BBIkQJAIhkk8DkTQOtrkq76sUYERJt/CgEDVBBB8X06QMBdVZ8wMfOBed2kOvDkT6ptoMsVCHYrXvPe99kBY7sy/6l8hYmEFO1bexbB0H9NpXfCJ9DKFeaBzji9E7h6gwiF99mAyJF3CTgPCLH6GSNHQBlYCu36X6AbMABrxXZ/1C83oMpZLcRJ0oJUqSJ8XQTT/f75CwEaNIM+CTHCQs2b43GJ0da89B2PrPlp/wvYjtEz8UNCOA9zxjXdgKFBoEb5PES6jzOk2gih1NZpXmybiSCAxDHvtPWc8RvUcUDEedPanfxxb6p/EKtyCCWGbcsALfaOayWAPOGLG0TVJo0IoWqA18MFQBq6AM8BGuw8gyEjLlDkkQNcPAdY47iVfxHw4QpFkgsEsqMErCh0aWHryQdAkHHyh+vK6EvVCSN2E4cIPoMhYBDEBIpCE6M/8TWtS7uR0TMHMHgBttYC/JSEBp9jfA8wjn5nWGDokAMAlAYzNq7DIdX1uzheVt4KLyKNvZjpc66JZSdpV4jr9PP9MsA5gAE+Uy4UfBF8hYI5/+L1WFvg4EMPu0Cye+QHpW7E94xT7QF73w6l84zBZECiSAJJ+SFaxeblQw44gGM9gBpWXnafkrEUDZU7BCzEUT+TwdrHLrKUgTi+tVIHaLTo2PYIBZ3YpfbvWJ6EUC5iksA1vvrsIAdKDg8JMXh+/nUZSLD6BdBM4BTLpxtcuF6OlOMO3cL+A4bcIIc1rWL0K8YjDAxAmfT5lW/1N1GynwjV69QvIkCpFfOndUfVbFEiGtwkjQWmiZJ+zOcP+psQa59LR38PEPXTnpHAMSlznCfoANlxvU76DGYU73lQt8jRqtf9BYLESUIwJoEvfzsKXhO9TuQCZo+X6vmZGMY9Zyg/6xuMVi4I0UldgEsbxQPo9PmzMIcCEooJIj4wafLQQbKGLZLAYdEGrMHKwZCA1HmAAc+r4qwhIQK4QwLeK2T/IkbKRhFFoHeiFsU3KTQ2LV7XSQ5FjPk2kOUk1A6A+TWQ54AkdhGGBwLfY3hm/vX3AAO0AtaA9n2DH7Azljb9AT4tCVDxWZl7hQIQwUDJKQK+bdwhgWMjPORlEvZWySeidDjBPiJZwJ7gzuuq2XehAOqOKyzzaf85VIq7uAzcOQP2UDzu5A8gKBTI2tvqo3hYuuYvYwkf/hooYyj5dO396CQA3Ukmw0A/HzkAk8AGDuDO0m+CneudC/zrA9FUACaRQGpAAAyUuriA1Rwr57d+mFfq1nqC6rnct5LDOEXmgUA4GsYXQQILSVwDqj4mflA4VDwtPvbP+A/VtysomRxOMMd8nQ9QQZy2bAAcNaK+D0C2fwKpcb4GBnCJ6SYEVc3jXc+bCve1nAWAiwT75xcBotDZkhRwhPzU2UDOCEIIt3aPlUw9hn4Bji+BJkgDKIJoBQdcOgbmiCgr2FrLEIJ5JEkcoMMGnAFz4gATOCk69g+rfqVXxCECyMAzApDGYyEKW6wxKfCSqOzf+YEJhP44AIFxTGYfAUsCNysD27itPKeHAjbhwuRxsldz4BJZlwMkPCcvj77vy8Aq4wTaBHJehyTpS5t+tXERuQXnHEEAx2hYPZUvMgRAtnEFA0ql2/Kxfv/BB8BN+chwECfwGuzJPOFRL4OS5evjj9T+ApngOb7rutUNooQs5SR2lPTrnAFrVhfBXngeFUgQBCxcoLN12bZOAPMix+q25RNQx3YCbctPRdElZts8yDIJp2s9nzkAXgev4O2UTRvvyqDj+wwF87rX93mCxglgAFqSPymctX8SN2b93V8vhooYHsM+/DsCkYoug2f47KBeCN3DAaxUqDTWXsAOMpypGMrO2swz0NwrY1Y95vqD0SJFysBSu+vyJGrp39+zH4QQGWjn88MPAmyLpwu4onCFwCqj1vYYiJZ/dRQsNUe1l0EFARbVj8Tx/xFJsX61/z4HsDuYIHIDHw4lOTQ5qGgSpEFP3Z91RQSSAc+8Xmp8hAMqt871Y98CNoBH3Qofsnu6Q0jCr4pAqKwbIYGkARlUDUw1UolVxsmu1WfVu+SjukMKtnEKhwyDm5yi93UpiDVfO6xw3GGg3gbGohtAg8+w8BdC/Av4sY57eq4OdwLaVLcyfTlECJIwIWIA2Lb4uUdfq4rIN4JK/BQ29Cw6AJS/S/IIKPrKFQxaTvd4fjDO9QE+9xiKj0PcaF4IROL4eXlBo9hsRSe5C8hWvEKB4jtA2wOc+J68guFlhAqGl+kq2H9xAr8Mmn8XkBO/ReGp65MEDuCXedXf5Amh8sIoJR9AkYpX1afWV9yepACAPi+ofMD3SBaZN5g4vM9aKT+uMNWsXGDaeMB0ORcyGFBaOkAO8KkkMm85LbzSn5rZJUiGm1Of/hFQlXhRrIC0UpO0WfEBmyQYRAkpQhblGAkVU/XqS64gQi3nALvj3gJzxPMq6dLXIUJE2N+PeXEAJ4EVl2HPifkzthfIBhfrRl8AZctkUgqP7VeoyZ4OIakCFJcF+Ic72TPf+hHMQYrYfJ0gNkngJgkFUjvWYdz92SvVxK4MJOBQaABFm5c5UWoUPEPFnjyV/Tvxq3vv/TUJoUJGzgzwfPzDSYD+OPTigc8u3psEi/LPiLEjU5zjcOgjXsf5WH7it5whoKf2t7IJpq7jHpjPj0CW/aJ+u4vPGZgDECC/+ZvgBqw90Czrxmme5wV4gK33BTnuDalEBI6HELd5GXSe/MkFHPtj47Z9fUQyiMLcQOoGiPV6eJAFpIrKee099Zx+fieBFxQf++6sP4pWG1uvef/YI4T54e/zA3SUDBdIKQegVocIIda2qgKCn1PEhBSTBqEBf39o9+BfADtWA0QoVy+IRomXDzqYJE43aIUjlCwxfpBJLhAC+O8P/cz53b8AAuhSaOyZzgA3oDNgzJaegyO3Zf92kCg7rY6dE1ISAjqBxPPpAPm7gAANsLp82x/6tM0nX1Db/QEbxMA+8z6KV8y2/eOQJnHbcV4HN4jx+tE6EGC8DDKoATdzilRYW+FBhFCSZ0UjlvuH+QCzeAGbDz8V95PhN6gE2YdD3MNrQSbFeyeC4zsCrJHtW70B2WoNYCSGcwCRRLmC1hrArHVoKDJUeIjd5zyhHYP5gkNPXgf/D4xybXODcbMAAAAAAElFTkSuQmCC;" vertex="1" parent="35mXfMyns2ajvdDKBd5Q-117">
          <mxGeometry width="52.62" height="14" as="geometry" />
        </mxCell>
        <mxCell id="35mXfMyns2ajvdDKBd5Q-105" value="" style="endArrow=classic;html=1;exitX=0.5;exitY=0;exitDx=0;exitDy=0;entryX=0.5;entryY=1;entryDx=0;entryDy=0;" edge="1" parent="35mXfMyns2ajvdDKBd5Q-117" source="35mXfMyns2ajvdDKBd5Q-99" target="35mXfMyns2ajvdDKBd5Q-104">
          <mxGeometry width="50" height="50" relative="1" as="geometry">
            <mxPoint x="315.27" y="110" as="sourcePoint" />
            <mxPoint x="365.27" y="60" as="targetPoint" />
          </mxGeometry>
        </mxCell>
        <mxCell id="35mXfMyns2ajvdDKBd5Q-106" value="" style="endArrow=none;dashed=1;html=1;dashPattern=1 3;strokeWidth=3;" edge="1" parent="1">
          <mxGeometry width="50" height="50" relative="1" as="geometry">
            <mxPoint x="420" y="520" as="sourcePoint" />
            <mxPoint x="480" y="520" as="targetPoint" />
          </mxGeometry>
        </mxCell>
        <mxCell id="35mXfMyns2ajvdDKBd5Q-108" value="" style="ellipse;whiteSpace=wrap;html=1;aspect=fixed;strokeWidth=1;" vertex="1" parent="1">
          <mxGeometry x="670" y="630" width="20" height="20" as="geometry" />
        </mxCell>
        <mxCell id="35mXfMyns2ajvdDKBd5Q-109" value="" style="shape=image;verticalLabelPosition=bottom;labelBackgroundColor=#ffffff;verticalAlign=top;aspect=fixed;imageAspect=0;image=data:image/png,iVBORw0KGgoAAAANSUhEUgAAAIAAAAAgCAYAAADaInAlAAAO8UlEQVR4Ab1bS1LcSBDtE0HfDjgFcAXwHTA3MeyBK3jajtDE+2VmCS8mJkwvCLWkUqmr3iczq5rD0+3l9nx73L7fHbcnHnF+yfPn++P2nZ8vt6e7y+35DufH7fv9JY+8f6e2uP/dn3PktfSJZ++O26/3h+30/rj9wt/Hw3Z6e9h++1zXH7Zfb7r/+8PH90c+k3a/cP3tcct99HV6f2Df7Jef9Uz15Xfgu2mcGse5x//Py/X2z8sN/06v+Hy1nXDt9UrXX33+cr2dXtHuuu6r/Q3b4hmdq7+f7Dd9z6P6Pvmd+/cfAAoBNYAA+TlgAnwTAEcRZQc4roMQBhjPYlJDAvWFd4AAlwS7gDRQBNQA4p7uhwgG9m2em0B4BgT6QBtc+7b99jWdoy/fI5ke+B1I5IzxzOMncARD4JMMBB8EANg3AhyA/kCbkEP3QBgRaFwHkdDHaz8bsohcIk3IJDLo/QeCakVDsVStAcXnIgOJcTHO7QiYwEmU+zwz3AMksTvAAaB8/gE0qL0AtDvk/CMACkSASYL4fhEJfYAg7DsE6mtyGfVBYmJ8HuO5x08ACZaAPAHkof4G3ErnPSn6ZHeI8qeqCbRdQZ/lHuj7Z1yGxANR/Pdysx2kVIEZsHmM1RP4I4nxRJXL/gH6EycRkyl7T18hkpQ2wsbdpeyfgEXFbfNRfqs2wMvilxABwEkEHNe+0k79fVtIxjGQsOt3ns73leP/WepvtQKQqfwC0MRoxUbJN3KHkMOhguSpUBDHcBhx2/37iwCx+qf7EQKYF8TODbyVPG0UOYPcYkyq+0lekRAw1U7FUtWx98ftRNU3oFCv2tktbOkEN07xJoKUI5QTdL6RfCEk/XR02Prq8UvttnaC1TEfAP4cNt6AOjyUWxjcOAKfE4nKQWYuQWcw4UIaE+UAYKAKsF6xfABecdJ2n9ieoxNDhg23ZQLpxE95gfpjm1vkAFI1YrRAVLJGe1+UDLtPWyeKIYOTRBBDoKedScL7uaYjk8S3xxHCMGblJuccf+y74vXrzQZV4nrdMziK350bFLjMFUCCqFyE4jnzhrb/2H2SxHqHiXbgJBBQxewGU0kbs36rXqrphA7nau9nHVdLXSSCHcXvSFaebJ0AEtip8ICXa3EEX3dCBwIo+0e7hAS0dTsTZb5DTuexVWUDkp5n/FK1AMdn2f1I7AC+Q4KOuxwBCo6KEd9ZSQDwXE+YCCnWULN/v6qAT8meYn4BHicAiPV3XKqChITkEXzWoaGc4F4O0IA00FPJ+Axg6QrM7tFOGT+JA7CdR8Ql8rzOQ4BBEDz/MaqA24uqVPBd+3vLGT4JAXNQY1c4nFXRfx1/q1bKDglEhCR7Bg+uYDdIOwEo5VfeMMIG20+SkFAmRYUME+blejtkoDnuHaHUnAQQ4cLJH55B+zxbQDOBdD6QRNEKK3UiBJSSW+Eih8/jDAkXPnbZpxCwrgHYNT6+sTTstro+vyvGkfMcv3r8sWSUcmXHAdnKF4hO9OIIVLoIgWqgiSCy6NzWj0STieF4B/pODsHnde+g+JfkTdaYyUCp1CxPbqCcgWXUYvm2VVp91DUWXXD9/lLKdfm3qrdJUIAiyXsDkO0UcABm+SBPksC6H5dIeyw0DTJ9PI51DYWmc4+fSh5gkgip/Rdgr5QXEEznAWX3rWitCSiEgDhyjCaI7osYIVwd4QBS+MUyMbJEK7vKQcfJu4CrmCnVN4FAnlaRSRMXuD0uiV0DK+BICK/wxdJp+YtTzNAQ0vSRoQPt6R4OHXm+kkCTNaENYyJxu9IpZ/vL45d6DQgXdRLzA56UKSAVEhTzA6qqhpSG3U5tkewF4LhE5Qy8J7KQiC9XIEBUv5+UnPvICZJqCDDs05OG+FlrApVMOVlcVgovh2obNCWEOBe4CzGcA4AQ8w+1v0pELRadyg0cAvCciTDDQBaARHyMTeODE+haO123cfxPtYS2/3P8AmNYdezfSm9A0SaJnUFHrE9eQLcQKU4vSgYJfNYEcPRnkq6uNwHgDnQAJUDJ7hvwXBe42iuAwgN8Jk9hAklhT95Mqiqk3CoEtLpl1QkF64KO4jstP+C6vJv7ByTPtHmHg+qTBBK5QCwovb+bvm/GuSxoVbujyf13xg+ApdCu/wW6AQOwDgV9PeqX9VPlSe5o+3EU5wNO9soBimTJIdBO7z+QyWQ/lnmnre/WBcYCEdvBPmPtVg9VVJm/J5qlICZaBMsqXak+4KamT+L3gTX+Bg7kCKhxgloJtEuwby8KyU2GG9gRWulWPxNBfD7P+AsUKtKxnKuDACSJn65T7ckXonwC7nAxXACkQUnIRM+ATwKx77hAkedmOzwnptvio1bGQIMXYD9Zop8p6+Q+AEgki9wTBEorezfQAVUxW+VfwFMC59W8ZdNnHz6c9GUVEY4A8pBcSQhFoBpDhS/nNGcaf0DREUDGxpEL3Liuj0tE0Va4yRCHEJnWOl87iCaWnYTt6ApxnX7GSaDV4KRoWnnZfUqmUrRVvSsFY6dMBj3JRRCEgMTmsS2skJAcQLF+EoX34xQOA3XfzhFnCaHiBmrnZPDtgaueWZb+5AZnGD/BMzBaxAHYANiqt8IDGo4gi8KGEj2Sh33E+nWMrYsYcoO0DeH27ycBaiIC2K0WQwBcbfXmnu1e6na+wIlrElWIYFtd1zv0e4CApDCQ9XqXcEzcmgSVwBXwDgUhBGN+q5zuUaFj7xSP3g4OefX9zzn+ACqQABx263TkNQNbWX6Vfrb9pWQ0AdIGz0LpPO9kL31VUlg5wdgNTEKnEJCJyUThmEUT3VPZpM9UPQiCfQU4xOISKRvVRy0FI8Y7QQMh8nkqW6oOiLtVveQKrA5AHtl+1f1zbcA5Avrmd0uICpmLwOsY51z8rfGrLl9LPyq8QMnSr+2f5FDSJuu32rOoQ4e44u4gneQH7N1tTIgQSy7Q93BuBxhAV2KXXwblXrvCOjFaGAIJaPu20VJVuYD6SfKnxR6pOUDTGSpuZ1EnBGhXoMqLPL2ZpOu2exNjTyyFo6xe/oHoXzx+gdHJH0DIej6JkDg/Q0HCw7znzwB71v78zQDvKc6LDADdSWYSQDtNhQAAyMQPgO0VEvunsjFpdgGAzXvDCeY9f85PsEAQEIDZff0UTPYdF6jYTRtXXlCLOgwDIUTiuhM+rxMkrIRodJR6DnsBWstQORgC9PoGifuF4wcBEs9bqajvA5AVTCuXWiuz/9FhILFcy7tuRxexwv25VM88wwnnIM9wgNgflHqhLeJMBFThn3ShasAkMc6HEIMEII8SQfTjPxMI1wkI1FsWnvido0Fnm2TzE+QQZpR41ZeudY5hkiAcMORoM4gEHt9Zjnae8ccBCMwsy2YIWCoDrwtQsbuqgWoGqCYPSTTaAOg8N8pI5AJ5/9gOFsgEz5Ojz61uTFQmq5RkReW6rB/PuBS0C6Av/NiCDmBAVNvjFzvOAaqM24PcOYLCRe73MSEl4YQOYBdBGFB4eeT3T5WjH39k7eM846cDBDirHioOIFIsQNeqX3KGuEaUjyNLSDpFwsioEhw28Dz6TP/799MBlgTHai31loqtep5n0gw0Q4GI0s+pjXbc3C5loOP3dIECbmT7cguBjCTv9/vYGCpbT5gY95IAcl8hVYbcgcSsMbVLicAZV1+v8YzKiH2Ug3jcdMP53J/HH0XSCfJbPatU11q1dR47j2PgOH/4QYAV54sYdhQQh1VGPaswkPdrO7jWtWPfAizlXNRdk5E4monkr4qykTL7wIQEfFUDFc9JAoOLxA82Plb75BSK97U7SGBb9UWQlH0mxRoCnDMwTDwsy9UYD8d2xvFPNUrtnRMIPKkYACFHQBsmiSEJj7Zwg9zl3cwF0K9LQRx/OP4PN0DfcoCseyPWlwOAwRdc7g0RlCQOlo+MuYC2G2Bi8xyJw7YKAQFbiZpKOGbrAHLvAC4XZ5KozF6EqT7sKgQfy8FVZoZkIkKp19+H3+2M4w9YcgInbBUCpjqnomPjK8CLm1jhM1SEQFQ7SMA/v9Pk8G5gbKzB7VxAyqZSOFGJ7SILQQ5pltVCbKK435Dh1r8Kjvpn8pZrLgMFpMHLbwBGrkDgcx7S4B9N0E/CQ5wh6wxvygHiZMoF7FAk7tePv1b/osQs7JSardQkbQYqYLNy4DWtE1QlUTuHco4C3e9Ju/37VQXcy56567ePbbF5gtgTpEmM3UftAdzX01eqiZSBATSxOqt6DAW27BBiHLumz5qAk7s/lIALgUAIEyvfu9cpkJyeb/y0dpdhBAnAB1AcGdtxzUoNMQDkeE7hw6Ggsv/eA8B9tmGfWXcwaUY/lQS2GryLF+CZ/IzVPINKh2AbrP6BGP6lkJ/LFnKup33sO8ey8Ki2wIT6Ex7aCZI4EmATiD8CKVKZQKMCwDvSXt/DO38ZI8gdsu6J/pfHL+CQwQ/gA5ZX8FagtUYwFa3MvsNFbQ8PsoBUkwTpc/9+loFUQ+wbk8ItXam5yzqB3AqK6veuMM/dR0IH/jHEwAiUVjIUmlIOwKcqyFEJH8ANGVIajnM7yWdype2jw5K+F8igvEZhrZLdLxz//N2/AILSpdDYc4FNZ8C9uMF6jK3HQQrkUjjaJ6To2f37+XsAbOxQAS5lMCn54adWzJQHBHwde3GIG0N+FoRRXqDlVvwDadSP5zrJ0+IMrZnWL7UDYACoTSC5gOy8Q0PUzC1fhIiRPIIwJED+WSRrCyaOklw7GhJB/51r/LJ9qxcA+0/KFGAkhnMAkaQrg9T1eQ79AfgiQ7lJ7D7rCe0YIQX6qJ+EYQKYtDlxy/ItQCOou6yZK4O0Td0vUsBB6v8D4xpQnFRHcBnXh/px7jJQoIYMUjxBLXX73gBdYSQEyarfdIvc0z+GUPUkbH+vc41/gtWgJ17LCfq6VYtEkW7gdgwfutdtBXjcg9fjIAwNbj/Igjb8z6AFPMZFqPeit4J9bbajysd12ikIAQLV5Doc0FKhOm0HU/XO4POrn7ZtWTrj+k69sv+4wgTYFh8ScdGo75djvGs7WI7lEDYqlR7f142/lesYnfJtxm/U/lgkGmAxTBB4KBnPyi3SH8AU6FgkWtcJeN2hIO3Vx/X2Lw+KT8HKizTKAAAAAElFTkSuQmCC;rotation=-90;" vertex="1" parent="1">
          <mxGeometry x="654.38" y="566.63" width="49" height="12.25" as="geometry" />
        </mxCell>
        <mxCell id="35mXfMyns2ajvdDKBd5Q-112" value="" style="endArrow=classic;html=1;exitX=0.5;exitY=0;exitDx=0;exitDy=0;" edge="1" parent="1" source="35mXfMyns2ajvdDKBd5Q-108">
          <mxGeometry width="50" height="50" relative="1" as="geometry">
            <mxPoint x="250.3499999999999" y="640" as="sourcePoint" />
            <mxPoint x="680" y="600" as="targetPoint" />
          </mxGeometry>
        </mxCell>
        <mxCell id="35mXfMyns2ajvdDKBd5Q-113" value="" style="endArrow=classic;html=1;exitX=0.5;exitY=0;exitDx=0;exitDy=0;entryX=0.75;entryY=1;entryDx=0;entryDy=0;" edge="1" parent="1" target="35mXfMyns2ajvdDKBd5Q-101">
          <mxGeometry width="50" height="50" relative="1" as="geometry">
            <mxPoint x="678.57" y="547" as="sourcePoint" />
            <mxPoint x="641.8375000000001" y="447" as="targetPoint" />
            <Array as="points">
              <mxPoint x="679" y="462" />
              <mxPoint x="642" y="462" />
            </Array>
          </mxGeometry>
        </mxCell>
        <mxCell id="35mXfMyns2ajvdDKBd5Q-121" value="" style="endArrow=classic;html=1;entryX=0.75;entryY=1;entryDx=0;entryDy=0;" edge="1" parent="1" target="35mXfMyns2ajvdDKBd5Q-74">
          <mxGeometry width="50" height="50" relative="1" as="geometry">
            <mxPoint x="650" y="460" as="sourcePoint" />
            <mxPoint x="703.3775" y="445" as="targetPoint" />
            <Array as="points">
              <mxPoint x="570" y="460" />
              <mxPoint x="560" y="450" />
              <mxPoint x="550" y="460" />
              <mxPoint x="432" y="460" />
            </Array>
          </mxGeometry>
        </mxCell>
        <mxCell id="35mXfMyns2ajvdDKBd5Q-122" value="" style="endArrow=classic;html=1;entryX=0.75;entryY=1;entryDx=0;entryDy=0;" edge="1" parent="1" target="35mXfMyns2ajvdDKBd5Q-44">
          <mxGeometry width="50" height="50" relative="1" as="geometry">
            <mxPoint x="440" y="460" as="sourcePoint" />
            <mxPoint x="661.8375000000001" y="455" as="targetPoint" />
            <Array as="points">
              <mxPoint x="360" y="460" />
              <mxPoint x="350" y="450" />
              <mxPoint x="340" y="460" />
              <mxPoint x="262" y="460" />
            </Array>
          </mxGeometry>
        </mxCell>
      </root>
    </mxGraphModel>
  </diagram>
</mxfile>
